{"glyphs":{"0":{"ha":736,"x_min":69,"x_max":792,"o":"m 314 4 q 131 98 193 4 q 69 342 69 192 q 133 657 69 494 q 308 928 196 819 q 560 1036 419 1036 q 734 946 676 1036 q 792 708 792 856 q 728 393 792 558 q 554 116 664 228 q 314 4 444 4 m 392 328 q 485 367 440 328 q 556 469 529 406 q 583 604 583 533 q 557 717 583 679 q 481 756 531 756 q 381 714 425 756 q 310 608 336 672 q 285 478 285 543 q 313 369 285 410 q 392 328 340 328 z "},"1":{"ha":438,"x_min":42,"x_max":563,"o":"m 160 0 q 72 28 103 0 q 42 111 42 56 q 132 381 42 208 q 249 632 218 547 q 257 668 257 656 q 247 694 257 688 q 214 704 236 700 q 188 710 197 706 q 179 726 179 714 q 241 835 179 758 q 382 974 303 913 q 515 1036 461 1036 q 563 988 563 1036 q 538 904 563 953 q 447 694 483 794 q 374 469 411 594 q 311 214 342 361 q 278 82 292 122 q 239 21 265 42 q 160 0 213 0 z "},"2":{"ha":694,"x_min":-39,"x_max":757,"o":"m 401 -4 q 303 14 346 -4 q 214 64 261 32 q 167 92 185 83 q 133 101 150 101 q 106 91 117 101 q 96 64 96 81 q 79 19 96 39 q 29 0 63 0 q -20 19 -1 0 q -39 81 -39 38 q -1 216 -39 143 q 135 346 38 289 q 343 478 267 422 q 457 583 419 533 q 494 683 494 632 q 473 748 494 724 q 410 772 451 772 q 334 749 368 772 q 288 689 300 725 q 265 653 279 665 q 235 642 251 642 q 199 660 214 642 q 183 713 183 678 q 189 758 183 735 q 302 959 218 882 q 506 1036 386 1036 q 688 972 619 1036 q 757 797 757 908 q 700 615 757 696 q 567 479 643 535 q 379 361 490 424 q 265 290 296 313 q 253 265 253 281 q 258 251 253 257 q 269 244 263 244 q 288 254 278 244 q 350 301 317 285 q 428 318 383 318 q 524 297 474 318 q 563 288 550 288 q 618 331 592 288 q 643 343 626 343 q 665 334 657 343 q 669 310 674 325 q 558 69 624 142 q 401 -4 493 -4 z "},"3":{"ha":704,"x_min":31,"x_max":774,"o":"m 317 -3 q 154 32 218 -3 q 60 122 90 67 q 31 240 31 176 q 51 344 31 294 q 108 424 72 394 q 189 454 144 454 q 219 447 208 454 q 229 426 229 440 q 224 403 229 421 q 219 367 219 385 q 248 299 219 324 q 326 274 276 274 q 418 308 381 274 q 456 392 456 342 q 430 453 456 431 q 364 476 404 476 q 319 490 336 476 q 303 526 303 503 q 320 564 303 549 q 365 579 338 579 q 480 613 435 579 q 525 697 525 646 q 500 763 525 739 q 431 786 475 786 q 353 761 386 786 q 304 689 319 736 q 283 654 297 667 q 251 642 268 642 q 214 663 228 642 q 200 722 200 685 q 244 878 200 806 q 362 993 288 950 q 522 1036 436 1036 q 705 975 636 1036 q 774 813 774 914 q 710 650 774 719 q 543 557 647 581 q 521 547 529 554 q 513 532 513 540 q 519 520 513 526 q 536 511 525 514 q 630 443 596 496 q 664 315 664 390 q 619 149 664 221 q 496 37 575 76 q 317 -3 417 -3 z "},"4":{"ha":753,"x_min":68,"x_max":807,"o":"m 744 483 q 776 497 763 497 q 797 485 789 497 q 804 451 804 474 q 788 364 804 414 q 731 276 772 314 q 621 238 690 238 q 596 239 604 238 q 550 90 572 140 q 500 19 528 39 q 426 0 472 0 q 364 17 385 0 q 343 72 343 33 q 404 283 343 136 q 281 304 324 304 q 230 296 249 304 q 190 272 211 288 q 169 259 181 265 q 146 253 158 253 q 92 278 115 253 q 68 339 68 303 q 101 415 68 378 q 275 615 218 538 q 332 756 332 692 q 324 786 332 775 q 303 797 317 797 q 268 778 279 797 q 223 813 239 785 q 207 878 207 840 q 228 962 207 921 q 291 1029 249 1003 q 396 1056 333 1056 q 525 1003 479 1056 q 571 872 571 951 q 496 678 571 776 q 288 476 421 581 q 278 461 278 468 q 294 451 278 451 q 479 453 414 451 q 624 760 575 663 q 710 905 672 857 q 782 953 747 953 q 807 928 807 953 q 797 880 807 910 q 757 781 786 850 q 683 589 700 636 q 647 460 663 531 q 744 483 726 469 z "},"5":{"ha":697,"x_min":32,"x_max":851,"o":"m 838 1036 q 847 1031 843 1036 q 849 1021 851 1025 q 833 975 838 990 q 783 851 806 897 q 717 773 760 806 q 610 740 675 740 q 565 746 586 740 q 517 763 543 751 q 487 774 513 764 q 433 783 461 783 q 381 765 400 782 q 349 714 363 749 l 314 624 q 442 646 374 646 q 623 569 560 646 q 686 381 686 493 q 642 199 686 288 q 515 53 599 110 q 318 -3 432 -3 q 156 32 219 -3 q 62 122 92 67 q 32 240 32 176 q 53 344 32 294 q 110 424 74 394 q 190 454 146 454 q 220 447 210 454 q 231 426 231 440 q 226 403 231 421 q 221 367 221 385 q 249 309 221 331 q 328 288 278 288 q 426 330 386 288 q 467 433 467 372 q 440 513 467 483 q 371 543 414 543 q 238 497 290 543 q 215 490 231 490 q 176 505 194 490 q 157 543 157 519 q 161 564 157 554 l 313 976 q 435 1028 331 1028 q 564 1022 475 1028 q 696 1017 653 1017 q 833 1035 785 1017 l 838 1036 z "},"6":{"ha":726,"x_min":75,"x_max":786,"o":"m 344 4 q 143 94 211 4 q 75 328 75 185 q 138 649 75 483 q 313 926 200 815 q 564 1036 425 1036 q 684 1003 633 1036 q 760 918 735 971 q 786 803 786 865 q 746 654 786 721 q 714 635 733 635 q 698 640 706 635 q 688 654 690 644 q 543 767 657 767 q 410 725 469 767 q 319 613 351 683 q 315 599 315 604 q 325 588 315 588 q 336 592 329 588 q 496 632 406 632 q 656 567 601 632 q 710 403 710 503 q 665 218 710 311 q 536 65 619 125 q 344 4 453 4 m 394 318 q 477 351 446 318 q 508 432 508 385 q 485 500 508 471 q 415 529 463 529 q 326 497 357 529 q 296 422 296 465 q 323 349 296 381 q 394 318 350 318 z "},"7":{"ha":613,"x_min":67,"x_max":821,"o":"m 238 -3 q 110 46 153 -3 q 67 171 67 94 q 192 442 67 292 q 331 585 263 526 q 475 700 399 643 q 535 748 519 733 q 549 772 551 763 q 539 782 547 782 q 513 771 531 782 q 465 750 486 757 q 417 743 444 743 q 364 751 393 743 q 296 763 326 763 q 253 756 269 763 q 218 736 236 749 q 194 722 204 726 q 171 717 183 717 q 149 724 158 717 q 140 746 140 732 q 144 767 140 754 l 219 956 q 269 1019 236 997 q 347 1040 303 1040 q 489 1033 431 1040 q 615 1013 547 1025 q 692 1001 664 1001 q 746 1024 724 1001 q 778 1039 761 1039 q 821 982 821 1039 q 764 848 821 921 q 589 656 707 775 q 468 529 488 550 q 406 440 426 482 q 386 369 386 399 q 394 339 386 350 q 415 328 401 328 q 442 339 432 328 q 461 350 453 350 q 482 324 482 350 q 460 187 482 263 q 383 54 438 111 q 238 -3 328 -3 z "},"8":{"ha":706,"x_min":51,"x_max":788,"o":"m 347 -17 q 134 58 217 -17 q 51 267 51 132 q 89 439 51 361 q 185 567 126 517 q 308 635 244 617 q 322 643 318 638 q 318 657 325 649 q 278 790 278 707 q 346 965 278 897 q 543 1033 414 1033 q 728 972 669 1033 q 788 824 788 910 q 742 681 788 744 q 617 578 696 617 q 606 569 610 575 q 607 558 603 564 q 665 458 643 514 q 686 329 686 403 q 642 151 686 229 q 522 28 599 72 q 347 -17 444 -17 m 515 653 q 582 677 558 653 q 606 744 606 701 q 583 808 606 785 q 521 831 561 831 q 456 807 479 831 q 433 740 433 783 q 455 676 433 699 q 515 653 476 653 m 393 319 q 475 350 444 319 q 506 432 506 381 q 478 506 506 478 q 404 533 450 533 q 322 503 353 533 q 290 421 290 472 q 318 347 290 375 q 393 319 346 319 z "},"9":{"ha":722,"x_min":47,"x_max":775,"o":"m 286 4 q 157 38 211 4 q 75 126 103 71 q 47 246 47 182 q 90 400 47 331 q 122 419 103 419 q 138 415 131 419 q 149 400 146 410 q 307 274 185 274 q 443 317 383 274 q 535 433 503 360 q 539 447 539 442 q 533 456 539 454 q 519 453 528 458 q 354 408 450 408 q 194 473 249 408 q 140 638 140 538 q 185 822 140 729 q 314 976 231 915 q 506 1036 397 1036 q 707 946 639 1036 q 775 713 775 856 q 713 391 775 557 q 538 115 650 225 q 286 4 425 4 m 440 553 q 527 590 494 553 q 560 675 560 628 q 535 738 560 713 q 465 764 511 764 q 376 731 410 764 q 342 650 342 697 q 366 582 342 611 q 440 553 390 553 z "}," ":{"ha":500,"x_min":0,"x_max":0,"o":""},"A":{"ha":1186,"x_min":-42,"x_max":1324,"o":"m 1218 381 q 1240 393 1226 393 q 1274 376 1260 393 q 1281 346 1289 360 l 1254 294 q 1178 154 1215 214 q 1084 47 1142 94 q 954 0 1026 0 q 852 57 885 0 q 819 207 819 114 q 831 324 819 254 q 661 347 744 328 l 611 257 q 431 31 532 119 q 225 -58 331 -58 q 75 -25 135 -58 q -13 61 15 8 q -42 175 -42 114 q -18 285 -42 232 q 47 369 6 338 q 143 401 89 401 q 158 397 151 401 q 164 385 164 392 q 203 310 164 339 q 300 282 242 282 q 522 400 419 282 q 352 542 414 456 q 290 731 290 628 q 321 853 290 801 q 403 931 351 904 q 514 957 454 957 q 628 917 589 957 q 667 824 667 878 q 658 800 667 808 q 636 793 650 792 q 554 769 589 799 q 519 671 519 740 q 597 499 519 564 l 635 563 q 917 936 782 828 q 1181 1044 1053 1044 q 1287 1006 1250 1044 q 1324 908 1324 968 q 1292 794 1322 842 q 1218 746 1261 746 q 1193 753 1210 746 q 1167 760 1176 761 q 1119 721 1144 760 q 1069 601 1094 682 q 1043 499 1053 542 q 1033 421 1033 456 q 1104 324 1033 324 q 1169 338 1138 324 q 1218 381 1200 351 m 851 418 q 928 629 881 518 q 952 690 946 671 q 958 728 958 710 q 942 747 958 747 q 912 735 928 747 q 867 690 896 724 q 711 440 806 611 q 851 418 768 422 z "},"B":{"ha":1104,"x_min":-69,"x_max":1169,"o":"m 171 -58 q 40 -25 94 -58 q -42 62 -15 8 q -69 175 -69 115 q -46 285 -69 232 q 19 369 -22 338 q 115 401 61 401 q 130 397 124 401 q 136 385 136 392 q 178 311 136 340 q 275 282 219 282 q 426 342 351 282 q 547 519 501 401 l 563 558 q 590 633 572 585 q 621 713 608 681 q 711 779 646 779 q 776 732 776 779 q 772 704 776 719 q 758 638 758 664 q 800 593 758 593 q 884 629 847 593 q 921 726 921 665 q 865 817 921 788 q 719 847 808 847 q 504 799 589 847 q 419 657 419 751 q 435 606 419 626 q 472 586 450 586 q 478 560 478 569 q 454 490 478 526 q 388 430 431 454 q 290 406 346 406 q 163 458 208 406 q 117 586 117 511 q 192 810 117 708 q 405 973 267 913 q 726 1033 543 1033 q 972 997 872 1033 q 1120 899 1071 961 q 1169 761 1169 838 q 1119 614 1169 679 q 990 535 1068 549 q 972 517 972 531 q 978 504 972 510 q 1044 331 1044 438 q 1000 151 1044 229 q 883 29 956 72 q 729 -14 811 -14 q 585 38 639 -14 q 525 176 531 89 q 359 1 449 61 q 171 -58 269 -58 m 742 288 q 818 327 789 288 q 847 419 847 367 q 825 472 847 450 q 760 493 803 493 q 689 461 715 493 q 663 385 663 429 q 683 315 663 343 q 742 288 703 288 z "},"C":{"ha":772,"x_min":46,"x_max":874,"o":"m 390 -17 q 140 83 235 -17 q 46 382 46 182 q 122 694 46 547 q 323 930 197 842 q 589 1018 449 1018 q 785 965 718 1018 q 853 819 853 911 q 813 678 853 743 q 715 575 774 613 q 604 538 657 538 q 567 549 582 538 q 553 575 553 560 q 558 594 553 581 q 599 719 599 671 q 577 772 599 754 q 519 789 556 789 q 407 751 458 789 q 326 649 356 713 q 297 518 297 586 q 367 355 297 419 q 569 290 438 290 q 708 311 643 290 q 804 381 772 332 q 826 393 813 393 q 859 376 844 393 q 867 346 874 360 q 662 74 776 164 q 390 -17 547 -17 z "},"D":{"ha":1131,"x_min":-56,"x_max":1132,"o":"m 185 -58 q 50 -25 104 -58 q -30 61 -4 8 q -56 175 -56 114 q -32 285 -56 232 q 33 369 -8 338 q 129 401 75 401 q 144 397 138 401 q 150 385 150 392 q 189 310 150 339 q 286 282 228 282 q 429 342 357 282 q 547 519 501 401 l 563 558 q 590 633 572 585 q 621 713 608 681 q 711 779 646 779 q 775 729 775 779 q 760 666 775 707 q 718 554 746 625 q 667 421 685 472 q 650 338 650 369 q 667 291 650 308 q 717 274 683 274 q 823 326 775 274 q 898 460 871 379 q 925 625 925 542 q 869 786 925 725 q 679 847 813 847 q 495 795 571 847 q 419 643 419 743 q 435 592 419 613 q 472 572 450 572 q 482 557 482 571 q 456 493 482 533 q 385 422 429 453 q 290 392 342 392 q 163 451 208 392 q 117 594 117 510 q 186 813 117 713 q 379 974 256 914 q 658 1033 503 1033 q 1019 910 907 1033 q 1132 590 1132 786 q 1074 303 1132 444 q 921 74 1017 163 q 717 -14 825 -14 q 581 38 632 -14 q 525 176 531 89 q 378 3 465 65 q 185 -58 290 -58 z "},"E":{"ha":717,"x_min":17,"x_max":818,"o":"m 314 -17 q 164 17 232 -17 q 56 115 96 50 q 17 269 17 181 q 83 470 17 392 q 260 558 149 549 q 278 575 278 560 q 268 590 278 585 q 185 756 185 638 q 226 903 185 839 q 345 1001 268 967 q 525 1036 422 1036 q 717 969 664 1036 q 771 818 771 901 q 739 706 771 750 q 665 661 707 661 q 639 669 649 661 q 629 690 629 678 q 605 774 629 743 q 518 804 581 804 q 417 769 451 804 q 382 685 382 735 q 399 625 382 651 q 444 586 417 599 q 553 594 492 586 q 610 600 597 600 q 634 587 626 600 q 642 546 642 574 q 475 435 642 435 q 358 471 411 435 q 313 438 331 464 q 294 379 294 411 q 349 303 294 331 q 501 276 403 276 q 649 303 583 276 q 749 381 715 329 q 771 393 757 393 q 803 376 789 393 q 811 346 818 360 q 596 78 725 172 q 314 -17 467 -17 z "},"F":{"ha":928,"x_min":-69,"x_max":1142,"o":"m 1088 1093 q 1130 1079 1118 1093 q 1142 1036 1142 1065 q 1116 935 1142 982 q 1040 859 1090 888 q 922 831 990 831 q 850 839 881 831 q 774 864 819 847 q 686 893 725 883 q 592 903 647 903 q 424 871 490 903 q 357 776 357 839 q 372 730 357 749 q 410 711 388 711 q 415 685 415 694 q 392 615 415 651 q 326 555 368 579 q 228 531 283 531 q 100 587 146 531 q 54 724 54 643 q 121 907 54 824 q 316 1040 188 990 q 621 1089 444 1089 q 785 1083 693 1089 q 904 1078 863 1078 q 1042 1089 978 1078 q 1065 1092 1053 1090 q 1088 1093 1076 1093 m 861 575 q 915 562 900 575 q 929 524 929 549 q 914 472 929 499 q 867 428 899 446 q 789 410 835 410 q 669 417 729 410 q 628 310 650 360 q 442 33 550 124 q 200 -58 333 -58 q 48 -25 108 -58 q -41 61 -12 8 q -69 175 -69 114 q -46 285 -69 232 q 19 369 -22 338 q 115 401 61 401 q 130 397 124 401 q 136 385 136 392 q 172 310 136 339 q 268 282 208 282 q 392 322 328 282 q 504 444 456 363 q 465 447 476 447 q 430 461 442 447 q 418 499 418 475 q 439 550 418 531 q 500 569 460 569 l 558 569 l 576 618 q 601 683 585 639 q 629 758 617 728 q 719 825 654 825 q 789 778 789 825 q 783 750 789 769 q 725 572 760 672 l 861 575 z "},"G":{"ha":754,"x_min":-271,"x_max":869,"o":"m 571 596 q 394 633 474 596 q 385 574 385 604 q 419 483 385 517 q 515 450 453 450 q 671 522 614 450 q 703 535 686 535 q 741 519 725 535 q 753 488 757 503 q 721 367 738 422 q 676 232 704 311 l 660 181 q 494 -50 611 33 q 219 -133 378 -133 q 53 -99 122 -133 q -53 -5 -17 -64 q -89 128 -89 54 q -46 269 -89 211 q 65 326 -3 326 q 80 322 74 326 q 86 310 86 317 q 148 181 86 232 q 297 131 210 131 q 511 263 433 131 q 514 272 514 268 q 510 285 514 279 q 501 290 506 290 q 492 283 496 290 q 428 220 468 239 q 346 201 389 201 q 203 275 258 201 q 149 482 149 349 q 207 740 149 615 q 140 753 169 753 q 66 731 94 753 q 38 671 38 708 q 56 621 38 640 q 103 601 74 601 q 107 578 107 592 q 85 519 107 550 q 21 468 63 489 q -75 447 -21 447 q -219 508 -168 447 q -271 663 -271 568 q -229 810 -271 744 q -112 913 -187 875 q 60 950 -37 950 q 186 932 133 950 q 289 885 239 914 q 444 999 351 964 q 619 1033 538 1033 q 803 976 736 1033 q 869 822 869 919 q 831 701 869 753 q 724 623 792 650 q 571 596 656 596 m 590 825 q 493 803 535 825 q 451 744 451 781 q 540 696 451 696 q 638 719 604 696 q 672 775 672 743 q 653 811 672 797 q 590 825 633 825 z "},"H":{"ha":1203,"x_min":-69,"x_max":1325,"o":"m 1235 381 q 1257 393 1243 393 q 1291 376 1276 393 q 1297 346 1306 360 l 1275 304 q 1194 161 1235 224 q 1090 49 1154 99 q 946 0 1026 0 q 827 43 871 0 q 783 167 783 86 q 817 379 783 279 l 818 385 q 825 421 825 410 q 812 448 825 442 q 771 454 799 454 l 721 453 q 690 447 703 453 q 665 417 678 440 l 654 393 l 614 301 q 171 -58 446 -58 q 40 -25 94 -58 q -42 62 -15 8 q -69 175 -69 115 q -46 285 -69 232 q 19 369 -22 338 q 115 401 61 401 q 130 397 124 401 q 136 385 136 392 q 175 310 136 339 q 272 282 214 282 q 427 342 351 282 q 547 519 503 401 q 618 694 579 601 l 665 811 q 606 819 635 819 q 474 769 528 819 q 419 642 419 718 q 435 592 419 613 q 472 572 450 572 q 478 546 478 556 q 454 476 478 513 q 388 416 431 440 q 290 392 346 392 q 163 451 208 392 q 117 596 117 511 q 183 815 117 714 q 367 974 249 915 q 631 1033 485 1033 q 784 998 733 1033 q 835 897 835 963 q 815 806 835 857 q 747 617 786 714 l 746 614 q 738 581 738 593 q 774 551 738 551 q 843 554 817 551 q 871 563 861 556 q 888 588 881 571 q 903 628 894 606 q 997 863 953 774 q 1091 1000 1040 953 q 1207 1047 1142 1047 q 1294 1013 1263 1047 q 1325 908 1325 979 q 1288 751 1325 833 q 1184 601 1250 669 q 1035 500 1118 533 q 994 428 994 483 q 1024 344 994 378 q 1101 310 1053 310 q 1176 328 1140 310 q 1235 381 1213 347 m 1051 690 q 1036 624 1036 643 q 1047 610 1036 610 q 1092 635 1067 610 q 1137 694 1118 660 q 1156 753 1156 728 q 1148 778 1156 769 q 1126 788 1140 788 q 1083 762 1100 788 q 1051 690 1067 736 z "},"I":{"ha":590,"x_min":-22,"x_max":681,"o":"m 247 -17 q 135 20 178 -17 q 92 117 92 57 q 116 197 92 161 q 196 288 140 232 q 264 358 240 332 q 389 539 340 444 q 510 811 438 633 q 442 818 481 818 q 326 786 371 818 q 281 699 281 754 q 296 648 281 668 q 333 628 311 628 q 339 601 339 611 q 315 532 339 568 q 249 472 292 496 q 151 447 207 447 q 24 500 69 447 q -22 628 -22 553 q 40 831 -22 739 q 216 978 101 924 q 481 1033 331 1033 q 635 1001 589 1033 q 681 906 681 969 q 665 810 681 867 q 581 499 635 685 q 488 194 528 314 q 392 38 454 92 q 247 -17 329 -17 z "},"J":{"ha":721,"x_min":-69,"x_max":833,"o":"m 221 -58 q 6 13 82 -58 q -69 197 -69 85 q -48 303 -69 253 q 13 384 -26 353 q 101 415 51 415 q 116 410 110 415 q 122 399 122 406 q 166 315 122 347 q 274 282 210 282 q 426 342 349 282 q 547 519 503 401 q 665 811 614 696 q 604 817 638 817 q 472 774 524 817 q 419 657 419 732 q 435 606 419 626 q 472 586 450 586 q 478 560 478 569 q 454 490 478 526 q 388 430 431 454 q 290 406 346 406 q 163 458 208 406 q 117 586 117 511 q 182 810 117 707 q 365 973 247 913 q 635 1033 483 1033 q 833 900 833 1033 q 811 793 833 851 q 728 550 797 750 l 665 367 q 483 42 590 143 q 221 -58 376 -58 z "},"K":{"ha":1140,"x_min":-69,"x_max":1307,"o":"m 900 513 q 886 492 886 504 q 892 481 886 486 q 924 440 913 464 q 947 381 936 417 q 980 310 963 333 q 1039 288 997 288 q 1111 310 1082 288 q 1172 381 1140 333 q 1194 393 1181 393 q 1226 377 1213 393 q 1235 346 1240 361 q 1086 101 1178 203 q 886 0 994 0 q 767 62 797 0 q 738 225 738 124 l 739 292 q 740 344 740 311 q 734 401 740 382 q 713 421 728 421 q 687 410 697 421 q 665 367 676 400 q 483 42 590 143 q 221 -58 376 -58 q 6 13 82 -58 q -69 197 -69 85 q -48 303 -69 253 q 13 384 -26 353 q 101 415 51 415 q 116 410 110 415 q 122 399 122 406 q 166 315 122 347 q 274 282 210 282 q 426 342 349 282 q 547 519 503 401 q 624 710 579 601 l 665 811 q 601 819 632 819 q 504 794 546 819 q 441 727 463 768 q 419 643 419 686 q 435 592 419 613 q 472 572 450 572 q 478 546 478 556 q 454 476 478 513 q 388 416 431 440 q 290 392 346 392 q 163 444 208 392 q 117 572 117 497 q 180 803 117 697 q 358 971 243 908 q 618 1033 472 1033 q 833 896 833 1033 q 811 790 833 847 l 783 707 q 761 644 763 647 l 760 640 q 756 614 756 626 q 781 583 756 583 q 847 636 813 583 q 926 794 882 689 q 990 922 963 875 q 1060 1001 1017 968 q 1164 1033 1103 1033 q 1272 990 1238 1033 q 1307 882 1307 946 q 1288 790 1307 833 q 1240 721 1269 747 q 1179 694 1211 694 q 1143 706 1163 694 q 1104 718 1124 718 q 1044 692 1069 718 q 985 611 1019 665 q 938 546 954 567 q 900 513 922 525 z "},"L":{"ha":839,"x_min":-183,"x_max":940,"o":"m 871 381 q 893 393 879 393 q 926 376 911 393 q 933 346 940 360 q 805 131 860 206 q 702 28 750 57 q 597 0 654 0 q 442 46 508 0 q 313 171 375 92 q 191 31 256 78 q 43 -17 126 -17 q -81 15 -29 -17 q -158 98 -132 46 q -183 210 -183 150 q -153 324 -183 269 q -62 412 -122 378 q 82 446 -3 446 q 254 407 167 446 q 283 463 264 424 q 92 576 161 497 q 24 765 24 656 q 90 951 24 881 q 268 1021 157 1021 q 378 988 336 1021 q 421 904 421 956 q 399 867 421 867 q 313 832 347 867 q 278 738 278 797 q 294 662 278 696 q 342 604 311 628 q 459 848 403 756 q 581 987 515 940 q 729 1033 646 1033 q 879 983 825 1033 q 933 839 933 933 q 880 647 933 739 q 719 498 826 556 q 460 440 611 440 l 444 440 q 394 328 419 379 q 497 281 449 297 q 601 264 546 264 q 756 293 681 264 q 871 381 832 322 m 663 793 q 501 575 594 793 q 496 560 499 568 q 608 592 560 563 q 681 662 656 621 q 707 740 707 703 q 696 778 707 763 q 663 793 685 793 m 121 279 q 196 321 158 279 q 125 357 160 357 q 89 346 101 357 q 76 318 76 335 q 88 290 76 301 q 121 279 100 279 z "},"M":{"ha":1436,"x_min":-61,"x_max":1539,"o":"m 1468 381 q 1485 392 1476 392 q 1509 377 1496 392 q 1531 346 1522 363 l 1504 294 q 1428 154 1465 214 q 1334 47 1392 94 q 1204 0 1276 0 q 1088 53 1128 0 q 1049 203 1049 107 q 1066 328 1049 268 q 1115 474 1083 388 q 1137 531 1128 504 q 1146 572 1146 558 q 1119 603 1146 603 q 1069 569 1093 603 q 1013 444 1044 535 q 938 181 982 353 q 890 91 921 115 q 817 67 858 67 q 731 88 754 67 q 707 154 707 108 q 716 225 707 186 q 744 326 725 264 q 776 447 765 399 q 788 540 788 494 q 754 607 788 607 q 715 568 724 607 q 509 94 650 246 q 179 -58 368 -58 q 48 -25 103 -58 q -34 62 -7 8 q -61 175 -61 115 q -37 285 -61 232 q 28 369 -14 338 q 124 401 69 401 q 138 397 132 401 q 144 385 144 392 q 184 310 144 339 q 285 282 224 282 q 453 351 376 282 q 576 520 531 421 q 622 697 622 619 q 597 781 622 751 q 526 811 572 811 q 436 773 474 811 q 399 672 399 735 q 419 611 399 636 q 469 586 439 586 q 475 560 475 575 q 454 496 475 529 q 394 441 433 463 q 304 419 354 419 q 167 479 221 419 q 114 636 114 539 q 171 833 114 742 q 333 978 228 924 q 572 1033 438 1033 q 851 933 750 1033 q 971 654 953 832 q 1088 840 1018 753 q 1238 980 1158 926 q 1392 1033 1318 1033 q 1503 993 1467 1033 q 1539 890 1539 953 q 1524 809 1539 850 q 1484 742 1508 768 q 1436 715 1460 715 q 1409 723 1425 715 q 1385 731 1393 731 q 1326 671 1353 731 q 1285 533 1300 611 q 1269 407 1269 454 q 1354 310 1269 310 q 1416 328 1386 310 q 1468 381 1446 346 z "},"N":{"ha":1131,"x_min":-69,"x_max":1551,"o":"m 171 -58 q 40 -25 94 -58 q -42 62 -15 8 q -69 175 -69 115 q -46 285 -69 232 q 19 369 -22 338 q 115 401 61 401 q 130 397 124 401 q 136 385 136 392 q 176 310 136 339 q 276 282 215 282 q 445 351 368 282 q 568 520 522 421 q 614 697 614 619 q 590 783 614 753 q 521 813 565 813 q 448 785 478 813 q 418 714 418 758 q 438 653 418 678 q 489 628 458 628 q 494 601 494 617 q 474 538 494 571 q 413 483 453 504 q 324 461 374 461 q 187 522 240 461 q 133 682 133 582 q 183 856 133 775 q 326 985 232 936 q 550 1033 421 1033 q 810 910 721 1033 q 900 506 900 786 q 918 476 900 476 q 934 485 926 476 q 943 506 942 493 q 1008 765 958 646 q 1144 960 1057 885 q 1356 1035 1232 1035 q 1502 992 1453 1035 q 1551 890 1551 950 q 1515 788 1551 825 q 1404 750 1478 750 q 1361 765 1379 750 q 1328 778 1346 778 q 1135 610 1218 778 q 997 153 1051 443 q 944 38 982 75 q 856 0 907 0 q 754 60 785 0 q 724 238 724 119 q 740 550 724 390 q 737 572 742 564 q 722 579 732 579 q 707 572 714 579 q 699 554 700 565 q 496 90 635 238 q 171 -58 357 -58 z "},"O":{"ha":736,"x_min":13,"x_max":776,"o":"m 538 1035 q 715 959 654 1035 q 776 747 776 883 q 709 413 776 590 q 528 117 642 236 q 285 -3 415 -3 q 153 35 215 -3 q 51 153 90 74 q 13 350 13 233 q 47 577 13 460 q 129 771 81 694 q 249 854 183 854 q 288 843 272 854 q 378 981 315 928 q 538 1035 442 1035 m 351 313 q 473 361 417 313 q 563 487 529 410 q 596 643 596 564 q 566 769 596 726 q 483 811 536 811 q 428 792 449 811 q 408 744 408 774 q 424 701 408 718 q 464 685 439 685 q 502 669 489 685 q 515 628 515 653 q 488 558 515 589 q 410 528 460 528 q 322 569 357 528 q 275 675 288 610 q 243 581 254 625 q 232 482 232 538 q 351 313 232 313 z "},"P":{"ha":1056,"x_min":-69,"x_max":1121,"o":"m 651 1033 q 1004 942 888 1033 q 1121 679 1121 851 q 1078 503 1121 589 q 951 364 1035 418 q 749 310 867 310 q 688 317 711 310 q 643 338 664 325 q 607 350 621 350 q 574 331 586 350 l 567 317 l 571 326 l 567 317 q 396 46 503 150 q 158 -58 289 -58 q -12 9 44 -58 q -69 171 -69 76 q -46 283 -69 229 q 19 369 -22 336 q 115 401 61 401 q 130 397 124 401 q 136 385 136 392 q 169 310 136 339 q 253 282 203 282 q 385 342 317 282 q 499 519 453 403 l 514 558 q 542 633 524 585 q 572 713 560 681 q 663 779 597 779 q 728 732 728 779 q 724 704 728 719 l 707 656 q 678 565 682 582 l 682 575 q 674 536 674 553 q 689 504 674 514 q 738 494 704 494 q 815 517 778 494 q 875 581 851 539 q 899 679 899 622 q 838 807 899 767 q 657 847 776 847 q 442 801 526 847 q 357 665 357 756 q 372 619 357 638 q 410 600 388 600 q 415 574 415 583 q 392 504 415 540 q 326 444 368 468 q 228 419 283 419 q 100 476 146 419 q 54 613 54 532 q 128 824 54 728 q 337 976 201 919 q 651 1033 472 1033 z "},"Q":{"ha":750,"x_min":25,"x_max":885,"o":"m 885 -37 q 802 -207 867 -136 q 643 -278 738 -278 q 483 -194 531 -278 q 421 32 435 -111 q 285 -3 354 -3 q 159 28 218 -3 q 63 123 100 58 q 25 282 25 188 q 43 397 25 343 q 96 492 61 451 q 82 590 82 532 q 126 793 82 690 q 260 965 169 896 q 482 1035 350 1035 q 701 951 625 1035 q 776 719 776 868 q 713 408 776 574 q 547 132 650 243 q 621 -14 572 38 q 765 -65 669 -65 q 872 -32 833 -65 l 885 -37 m 433 801 q 327 767 374 801 q 251 679 281 732 q 214 572 222 626 q 301 585 254 585 q 427 541 383 585 q 493 417 471 497 q 548 523 528 463 q 568 643 568 583 q 531 761 568 721 q 433 801 494 801 m 339 326 q 394 338 365 326 q 360 431 383 399 q 294 464 336 464 q 242 445 263 464 q 222 397 222 426 q 252 347 222 368 q 339 326 282 326 z "},"R":{"ha":1126,"x_min":-56,"x_max":1226,"o":"m 169 -58 q 1 10 57 -58 q -56 175 -56 78 q -32 285 -56 232 q 33 369 -8 338 q 129 401 75 401 q 144 397 138 401 q 150 385 150 392 q 183 310 150 339 q 267 282 217 282 q 513 519 404 282 l 528 558 q 556 633 538 585 q 586 713 574 681 q 676 779 611 779 q 742 732 742 779 q 738 704 742 719 q 696 557 701 600 q 707 526 694 533 q 749 519 719 519 q 829 542 792 519 q 890 605 867 565 q 913 693 913 644 q 847 810 913 774 q 667 847 781 847 q 515 821 579 847 q 418 753 451 794 q 385 665 385 711 q 400 619 385 638 q 438 600 415 600 q 443 574 443 583 q 419 504 443 540 q 353 444 396 468 q 256 419 311 419 q 128 476 174 419 q 82 613 82 532 q 158 811 82 714 q 373 971 233 908 q 692 1033 513 1033 q 1027 956 915 1033 q 1139 733 1139 878 q 1080 537 1139 617 q 918 440 1021 457 q 880 431 890 436 q 869 418 869 426 q 879 403 869 410 q 901 385 889 396 q 925 353 913 375 q 965 304 943 321 q 1024 288 986 288 q 1097 310 1067 288 q 1158 381 1126 333 q 1181 393 1167 393 q 1213 377 1199 393 q 1221 346 1226 361 q 1065 103 1161 206 q 868 0 969 0 q 766 44 806 0 q 719 178 726 88 l 717 219 q 700 344 713 300 q 650 389 688 389 q 627 381 635 389 q 614 357 619 374 q 428 56 544 171 q 169 -58 313 -58 z "},"S":{"ha":719,"x_min":-6,"x_max":806,"o":"m 315 -58 q 151 -21 224 -58 q 36 90 78 17 q -6 268 -6 164 q 31 435 -6 369 q 117 529 67 500 q 215 558 168 558 q 257 549 242 558 q 272 524 272 539 q 256 493 272 510 q 232 460 240 476 q 224 413 224 443 q 254 323 224 356 q 339 290 285 290 q 421 322 389 290 q 453 406 453 354 q 438 469 453 438 q 394 551 424 501 q 334 669 356 618 q 313 783 313 721 q 342 907 313 850 q 431 999 371 964 q 581 1033 492 1033 q 750 976 694 1033 q 806 836 806 919 q 772 719 806 774 q 682 636 739 665 q 668 629 678 629 q 636 644 653 629 q 619 672 619 658 q 624 683 619 679 q 642 746 642 706 q 627 795 642 775 q 579 815 613 815 q 517 790 542 815 q 493 714 493 765 q 511 640 493 676 q 568 542 529 603 q 640 414 615 468 q 665 297 665 360 q 620 114 665 194 q 496 -12 575 33 q 315 -58 417 -58 z "},"T":{"ha":728,"x_min":-69,"x_max":1210,"o":"m 242 475 q 114 531 160 475 q 68 668 68 588 q 133 865 68 771 q 330 1017 199 958 q 650 1075 461 1075 q 847 1068 757 1075 q 900 1065 869 1067 q 972 1064 931 1064 q 1110 1075 1046 1064 q 1133 1078 1121 1076 q 1156 1079 1144 1079 q 1198 1065 1186 1079 q 1210 1022 1210 1051 q 1183 920 1210 967 q 1106 845 1157 874 q 982 817 1054 817 q 908 824 940 817 q 832 849 876 832 q 737 878 779 868 q 633 889 694 889 q 494 866 554 889 q 403 804 435 843 q 371 721 371 765 q 386 674 371 693 q 424 656 401 656 q 429 629 429 639 q 406 560 429 596 q 340 499 382 524 q 242 475 297 475 m 200 -58 q 48 -25 108 -58 q -41 61 -12 8 q -69 175 -69 114 q -46 285 -69 232 q 19 369 -22 338 q 115 401 61 401 q 130 397 124 401 q 136 385 136 392 q 172 310 136 339 q 268 282 208 282 q 417 342 340 282 q 540 519 494 401 l 556 558 q 583 633 565 585 q 614 713 601 681 q 704 779 639 779 q 774 732 774 779 q 768 704 774 724 q 628 310 686 447 q 442 33 550 124 q 200 -58 333 -58 z "},"U":{"ha":792,"x_min":-315,"x_max":894,"o":"m 199 -1 q 68 63 114 -1 q 22 232 22 128 q 72 467 22 336 q 201 706 122 597 q 363 860 281 815 q 88 821 188 867 q -12 685 -12 775 q 3 634 -12 654 q 40 614 18 614 q 46 588 46 597 q 22 518 46 554 q -44 458 -1 482 q -142 433 -86 433 q -269 486 -224 433 q -315 614 -315 539 q -238 824 -315 728 q -18 976 -161 919 q 311 1033 125 1033 q 476 1004 415 1033 q 536 918 536 975 q 525 867 536 897 q 399 758 460 836 q 303 586 339 681 q 267 418 267 492 q 335 324 267 324 q 444 385 394 324 q 533 550 494 447 q 631 811 593 721 q 707 950 668 901 q 792 999 746 999 q 849 947 849 999 q 825 868 849 914 q 663 469 710 636 q 646 378 646 413 q 660 328 646 346 q 711 310 675 310 q 824 381 778 310 q 846 393 832 393 q 880 376 865 393 q 886 346 894 360 l 860 294 q 784 154 821 214 q 690 47 747 94 q 560 0 632 0 q 428 143 428 0 q 431 194 428 158 q 199 -1 324 -1 z "},"V":{"ha":681,"x_min":-249,"x_max":1121,"o":"m 292 0 q 155 62 211 0 q 99 247 99 124 q 286 811 99 467 q 215 822 246 822 q 101 786 147 822 q 54 697 54 750 q 69 648 54 668 q 107 628 85 628 q 113 601 113 611 q 89 532 113 568 q 23 472 65 496 q -75 447 -19 447 q -203 507 -157 447 q -249 651 -249 567 q -184 842 -249 754 q -5 981 -119 929 q 251 1033 110 1033 q 392 1000 351 1033 q 433 900 433 967 q 422 806 433 861 q 370 536 386 629 q 354 385 354 443 q 388 310 354 310 q 461 370 428 310 q 547 565 494 431 l 560 600 q 660 838 615 746 q 772 995 704 929 q 929 1061 839 1061 q 1071 1015 1021 1061 q 1121 903 1121 968 q 1077 794 1121 840 q 958 749 1033 749 q 892 765 919 749 q 849 776 867 776 q 763 729 803 776 q 689 613 722 682 q 608 425 656 543 q 511 202 553 286 q 414 59 469 118 q 292 0 358 0 z "},"W":{"ha":1069,"x_min":-249,"x_max":1506,"o":"m 260 0 q 146 62 193 0 q 99 247 99 124 q 286 811 99 467 q 215 822 246 822 q 101 786 147 822 q 54 697 54 750 q 69 648 54 668 q 107 628 85 628 q 113 601 113 611 q 89 532 113 568 q 23 472 65 496 q -75 447 -19 447 q -203 507 -157 447 q -249 651 -249 567 q -184 842 -249 754 q -5 981 -119 929 q 251 1033 110 1033 q 405 1001 360 1033 q 450 901 450 968 q 436 806 450 864 l 428 771 q 369 504 385 581 q 354 386 354 428 q 364 338 354 353 q 396 324 374 324 q 467 393 433 324 q 547 628 501 463 q 583 771 564 688 q 621 908 606 863 q 663 979 636 953 q 736 1006 690 1006 q 820 978 785 1006 q 856 901 856 950 q 842 831 856 865 q 801 746 829 797 q 762 662 776 696 q 739 589 747 628 q 721 432 721 494 q 732 351 721 379 q 760 324 743 324 q 816 372 793 324 q 871 525 839 419 l 883 565 q 1069 942 963 824 q 1314 1061 1175 1061 q 1456 1015 1406 1061 q 1506 903 1506 968 q 1462 794 1506 840 q 1343 749 1418 749 q 1302 753 1317 749 q 1272 765 1288 757 q 1257 772 1269 767 q 1226 776 1244 776 q 1130 731 1167 776 q 1072 616 1093 685 q 1025 429 1050 547 q 967 204 994 289 q 884 60 939 119 q 739 0 829 0 q 626 47 671 0 q 582 196 582 94 q 589 281 582 243 l 590 292 q 585 313 590 306 q 569 319 579 319 q 549 310 560 319 q 533 281 539 300 q 414 66 489 132 q 260 0 339 0 z "},"X":{"ha":1043,"x_min":-69,"x_max":1172,"o":"m 157 -58 q 35 -25 86 -58 q -43 62 -17 8 q -69 175 -69 115 q -45 292 -69 236 q 22 381 -21 347 q 117 415 65 415 q 150 399 150 415 q 189 324 150 353 q 286 296 228 296 q 447 367 381 296 q 547 542 514 438 q 565 642 565 600 q 546 716 565 689 q 488 743 526 743 q 411 703 439 743 q 383 617 383 664 q 389 582 383 594 q 393 560 393 569 q 377 527 393 539 q 333 515 361 515 q 244 565 275 515 q 213 690 213 614 q 247 851 213 771 q 349 985 282 932 q 507 1039 415 1039 q 654 980 615 1039 q 693 829 693 921 q 690 761 693 803 l 689 718 q 703 682 689 682 q 722 701 711 682 q 750 761 733 721 q 815 895 783 839 q 901 995 847 951 q 1026 1039 954 1039 q 1135 996 1099 1039 q 1172 886 1172 953 q 1146 765 1172 826 q 1075 664 1119 704 q 981 624 1031 624 q 948 633 958 624 q 929 660 938 642 q 910 686 919 678 q 881 694 901 694 q 792 634 826 694 q 758 500 758 574 q 805 369 758 415 q 932 324 851 324 q 1017 337 976 324 q 1075 381 1057 350 q 1103 397 1085 397 q 1129 386 1118 397 q 1140 361 1140 375 q 1138 346 1140 351 q 1056 194 1099 264 q 940 63 1014 125 q 769 0 865 0 q 656 54 685 0 q 626 196 626 108 l 628 258 q 629 303 629 274 q 625 344 629 331 q 610 357 621 357 q 581 335 594 357 q 546 261 568 314 q 472 107 511 172 q 354 -8 432 42 q 157 -58 276 -58 z "},"Y":{"ha":1056,"x_min":21,"x_max":1200,"o":"m 443 -299 q 242 -256 322 -299 q 125 -144 163 -212 q 88 1 88 -76 q 113 124 88 67 q 186 217 139 182 q 294 253 233 253 q 328 247 318 253 q 340 235 339 242 q 342 211 342 228 q 365 119 342 163 q 440 49 389 76 q 564 21 490 21 q 753 83 683 21 q 851 220 824 144 q 878 346 878 296 q 865 363 878 363 q 847 346 854 363 q 743 173 815 235 q 585 111 671 111 q 444 176 494 111 q 394 344 394 240 q 439 537 394 429 q 554 734 483 644 q 699 860 625 824 q 424 821 524 867 q 324 685 324 775 q 339 634 324 654 q 376 614 354 614 q 382 588 382 597 q 358 518 382 554 q 292 458 335 482 q 194 433 250 433 q 67 486 113 433 q 21 614 21 539 q 98 824 21 728 q 318 976 175 919 q 647 1033 461 1033 q 812 1003 751 1033 q 872 914 872 974 q 861 860 872 890 q 748 773 801 836 q 662 633 694 710 q 629 497 629 557 q 697 403 629 403 q 826 483 776 403 q 926 736 875 563 q 1017 950 972 899 q 1107 1001 1061 1001 q 1176 976 1151 1001 q 1200 903 1200 950 q 1184 831 1200 868 q 1136 735 1168 793 q 1090 644 1108 683 q 1058 561 1071 604 q 1040 502 1054 549 q 1013 401 1025 456 q 990 282 1000 346 q 813 -147 949 6 q 443 -299 676 -299 z "},"Z":{"ha":839,"x_min":-4,"x_max":942,"o":"m 124 -12 q 28 28 61 -12 q -4 138 -4 69 q 68 381 -4 289 q 239 516 140 472 q 489 601 338 560 q 626 642 578 625 q 706 687 675 660 q 738 753 738 714 q 717 778 738 778 q 700 769 708 778 q 690 760 692 761 q 640 721 668 736 q 560 706 613 706 q 443 725 518 706 q 325 744 368 744 q 279 731 294 744 q 264 694 264 717 q 274 664 264 676 q 285 642 285 651 q 269 614 285 626 q 226 601 254 601 q 133 648 168 601 q 97 761 97 694 q 135 897 97 833 q 243 1000 174 961 q 403 1039 313 1039 q 489 1029 446 1039 q 592 1000 532 1019 q 683 974 650 982 q 749 967 717 967 q 803 978 788 967 q 828 1010 818 989 q 842 1032 835 1025 q 868 1039 850 1039 q 922 1001 907 1039 q 936 890 936 964 q 866 667 936 754 q 701 537 796 581 q 464 449 607 493 q 301 390 351 415 q 250 322 250 364 q 255 310 250 315 q 267 306 260 306 q 283 314 278 306 q 348 369 313 353 q 450 386 383 386 q 522 378 490 386 q 592 353 554 369 q 659 330 632 338 q 724 322 686 322 q 871 381 831 322 q 893 393 879 393 q 927 376 913 393 q 933 346 942 360 l 911 306 q 828 162 869 225 q 721 49 786 99 q 574 -1 656 -1 q 456 17 503 -1 q 385 59 410 35 q 332 122 360 83 q 290 172 308 157 q 243 188 272 188 q 211 176 221 188 q 201 149 201 164 q 214 117 201 135 q 226 97 222 106 q 231 72 231 88 q 203 13 231 39 q 124 -12 175 -12 z "},"a":{"ha":714,"x_min":4,"x_max":815,"o":"m 147 0 q 41 57 78 0 q 4 210 4 114 q 46 427 4 314 q 169 617 88 540 q 363 694 250 694 q 433 684 410 694 q 474 657 457 674 q 504 642 492 642 q 528 647 518 642 q 553 664 539 653 q 586 687 571 679 q 625 694 601 694 q 674 643 674 694 q 665 599 674 621 q 640 543 657 576 q 625 509 636 532 q 607 467 614 486 q 579 368 579 410 q 636 310 579 310 q 746 381 701 310 q 768 393 754 393 q 801 376 786 393 q 808 346 815 360 l 775 279 q 699 135 732 190 q 618 40 665 81 q 510 0 571 0 q 418 42 450 0 q 386 154 386 85 q 390 203 386 178 l 385 203 q 278 56 340 113 q 147 0 217 0 m 286 288 q 349 308 321 288 q 392 358 376 328 q 407 418 407 389 q 388 472 407 453 q 335 492 368 492 q 250 451 283 492 q 217 363 217 411 q 235 308 217 328 q 286 288 254 288 z "},"b":{"ha":633,"x_min":7,"x_max":736,"o":"m 665 381 q 686 390 671 390 q 721 376 706 390 q 728 346 736 363 q 633 215 690 268 q 488 156 576 161 q 368 42 435 83 q 235 0 301 0 q 71 68 135 0 q 7 244 7 136 q 32 381 7 308 q 46 422 38 394 l 138 682 q 246 925 200 851 q 349 999 292 999 q 404 949 404 999 q 382 868 404 917 q 367 832 369 839 q 294 647 310 707 l 293 642 q 297 632 293 636 q 308 628 301 628 q 332 639 321 628 q 390 681 360 667 q 446 694 419 694 q 597 497 597 694 q 568 315 597 407 q 665 381 626 324 m 217 363 q 234 308 217 329 q 289 288 251 288 q 349 308 322 288 q 392 358 376 328 q 407 418 407 389 q 388 471 407 450 q 331 492 369 492 q 249 451 282 492 q 217 363 217 411 z "},"c":{"ha":583,"x_min":4,"x_max":686,"o":"m 244 0 q 65 77 126 0 q 4 271 4 154 q 48 469 4 371 q 172 631 92 568 q 357 694 253 694 q 500 646 451 694 q 549 524 549 597 q 527 431 549 468 q 473 375 506 393 q 407 357 440 357 q 354 369 374 357 q 335 396 335 381 q 344 418 335 406 q 360 442 354 431 q 367 475 367 453 q 353 510 367 496 q 310 524 339 524 q 238 484 265 524 q 211 389 211 444 q 256 282 211 319 q 371 244 301 244 q 503 279 436 244 q 615 381 569 314 q 638 393 624 393 q 672 376 657 393 q 678 346 686 360 q 476 88 586 176 q 244 0 367 0 z "},"d":{"ha":714,"x_min":4,"x_max":815,"o":"m 163 0 q 44 54 83 0 q 4 197 4 108 q 46 423 4 307 q 169 617 88 539 q 363 694 250 694 q 433 682 410 694 q 474 647 457 669 q 504 628 490 628 q 517 640 513 628 q 532 686 522 653 q 586 847 554 769 q 658 967 622 935 q 732 999 694 999 q 769 983 756 999 q 782 940 782 968 q 764 868 782 908 l 607 467 q 579 368 579 410 q 636 310 579 310 q 746 381 701 310 q 768 393 754 393 q 801 376 786 393 q 808 346 815 360 l 775 279 q 699 135 732 190 q 618 40 665 81 q 510 0 571 0 q 420 44 453 0 q 388 160 388 89 q 390 203 388 172 l 385 203 q 281 56 339 113 q 163 0 222 0 m 289 288 q 349 308 322 288 q 392 358 376 328 q 407 418 407 389 q 388 471 407 450 q 331 492 369 492 q 249 451 282 492 q 217 363 217 411 q 234 308 217 329 q 289 288 251 288 z "},"e":{"ha":597,"x_min":21,"x_max":700,"o":"m 261 0 q 82 77 143 0 q 21 271 21 154 q 65 469 21 371 q 193 631 110 568 q 385 694 276 694 q 524 644 476 694 q 571 519 571 594 q 542 418 571 468 q 463 336 514 368 q 347 304 413 304 q 239 326 278 304 q 231 329 233 329 q 219 324 224 329 q 215 310 215 319 q 256 256 215 275 q 360 236 297 236 q 510 274 435 236 q 629 381 585 311 q 651 393 638 393 q 685 376 671 393 q 692 346 700 360 q 491 88 600 175 q 261 0 382 0 m 311 408 q 373 433 349 408 q 397 486 397 457 q 381 527 397 511 q 333 543 364 543 q 270 519 294 543 q 246 465 246 496 q 263 424 246 440 q 311 408 279 408 z "},"f":{"ha":360,"x_min":-21,"x_max":621,"o":"m 488 1063 q 588 1028 556 1063 q 621 940 621 994 q 604 860 621 900 q 560 795 588 821 q 504 769 533 769 q 475 790 475 769 q 424 857 475 857 q 290 693 343 857 l 436 693 q 451 683 446 693 q 457 654 457 672 q 441 594 457 622 q 401 565 425 565 q 353 570 392 567 q 258 578 315 574 q 214 293 233 460 q 208 233 211 275 q 192 109 201 156 q 155 31 183 63 q 72 0 126 0 q 1 25 22 0 q -21 103 -21 50 q -8 213 -21 147 q 32 381 6 279 q 94 588 63 492 l 75 588 q 15 601 33 588 q -4 635 -4 614 q 11 674 -4 656 q 40 693 26 693 l 133 693 q 291 966 204 869 q 488 1063 378 1063 z "},"g":{"ha":701,"x_min":-112,"x_max":804,"o":"m 733 381 q 754 390 739 390 q 789 376 774 390 q 796 346 804 363 l 768 288 q 692 133 724 190 q 616 38 660 76 q 517 0 572 0 q 468 31 486 0 q 319 -272 401 -181 q 118 -362 238 -362 q -52 -306 8 -362 q -112 -147 -112 -249 q -90 -38 -112 -83 q -40 26 -67 7 q -11 28 -12 44 q 35 -56 -6 -25 q 146 -89 76 -87 q 263 -49 207 -89 q 353 51 319 -10 q 388 172 388 111 q 375 189 388 189 q 350 168 361 189 q 269 55 322 97 q 163 13 217 13 q 48 65 92 13 q 4 197 4 118 q 46 423 4 307 q 169 617 88 539 q 363 694 250 694 q 433 684 410 694 q 474 657 457 674 q 504 642 492 642 q 528 647 518 642 q 553 664 539 653 q 586 687 571 679 q 625 694 601 694 q 674 643 674 694 q 665 603 674 625 q 638 543 657 582 q 561 358 590 444 q 554 313 554 328 q 567 272 554 285 q 599 260 579 260 q 733 381 650 260 m 289 288 q 349 308 322 288 q 392 358 376 328 q 407 418 407 389 q 388 471 407 450 q 331 492 369 492 q 249 451 282 492 q 217 363 217 411 q 234 308 217 329 q 289 288 251 288 z "},"h":{"ha":696,"x_min":-14,"x_max":799,"o":"m 94 0 q -14 143 -14 0 q 33 381 -14 246 l 64 469 q 177 784 138 683 q 258 942 217 885 q 350 999 300 999 q 406 949 406 999 q 383 868 406 917 q 342 782 375 849 q 282 647 293 692 q 276 617 276 622 q 280 602 276 607 q 289 597 283 597 q 319 615 301 597 q 488 694 401 694 q 581 658 549 694 q 613 567 613 622 q 607 522 613 542 q 590 469 601 501 q 574 422 579 442 q 568 379 568 403 q 583 326 568 343 q 632 310 599 310 q 683 327 661 310 q 728 381 704 344 q 750 393 736 393 q 784 376 769 393 q 790 346 799 360 l 764 294 q 688 154 725 214 q 594 47 651 94 q 464 0 536 0 q 371 40 400 0 q 342 144 342 81 q 352 222 342 185 q 382 310 363 258 q 407 400 407 375 q 393 436 407 424 q 354 449 379 449 q 281 415 315 449 q 225 326 246 381 q 204 210 204 271 l 204 147 q 94 0 204 0 z "},"i":{"ha":342,"x_min":-3,"x_max":444,"o":"m 279 751 q 190 775 224 751 q 157 850 157 799 q 296 978 157 978 q 417 865 426 978 q 279 751 406 751 m 125 0 q 28 47 58 0 q -3 174 -3 94 q 32 381 -3 269 q 129 618 83 542 q 232 694 175 694 q 279 632 279 694 q 271 572 279 603 q 246 499 263 542 q 235 465 243 492 q 222 418 226 439 q 217 381 217 397 q 233 329 217 347 q 279 311 250 311 q 330 328 308 311 q 375 381 351 346 q 397 393 383 393 q 430 377 415 393 q 438 347 444 361 q 408 289 425 326 q 335 150 369 208 q 246 46 300 92 q 125 0 192 0 z "},"ı":{"ha":342,"x_min":-3,"x_max":444,"o":"m 125 0 q 28 47 58 0 q -3 174 -3 94 q 32 381 -3 269 q 129 618 83 542 q 232 694 175 694 q 279 632 279 694 q 271 572 279 603 q 246 499 263 542 q 235 465 243 492 q 222 418 226 439 q 217 381 217 397 q 233 329 217 347 q 279 311 250 311 q 330 328 308 311 q 375 381 351 346 q 397 393 383 393 q 430 377 415 393 q 438 347 444 361 q 408 289 425 326 q 335 150 369 208 q 246 46 300 92 q 125 0 192 0 z "},"j":{"ha":353,"x_min":-450,"x_max":456,"o":"m 279 751 q 190 775 224 751 q 157 850 157 799 q 296 978 157 978 q 417 865 426 978 q 279 751 406 751 m 385 381 q 404 390 390 390 q 440 376 424 390 q 447 346 456 363 l 419 288 q 343 133 375 190 q 267 38 311 76 q 168 0 224 0 q 119 31 138 0 q 26 -199 75 -114 q -82 -324 -22 -285 q -219 -362 -142 -362 q -390 -312 -329 -362 q -450 -174 -450 -262 q -431 -67 -450 -111 q -387 -5 -411 -24 q -362 0 -364 14 q -328 -65 -358 -40 q -246 -89 -297 -89 q -144 -58 -181 -89 q -81 36 -107 -28 q -7 254 -54 100 l 33 381 q 133 617 83 539 q 242 694 183 694 q 288 680 272 694 q 304 633 304 665 q 295 581 304 608 q 264 499 286 554 q 242 441 257 481 q 214 364 226 401 q 206 314 206 335 q 218 273 206 286 q 250 260 231 260 q 315 291 282 260 q 385 381 347 322 z "},"k":{"ha":696,"x_min":-14,"x_max":793,"o":"m 94 0 q -14 143 -14 0 q 33 381 -14 246 l 64 469 q 177 784 138 683 q 258 942 217 885 q 350 999 300 999 q 406 949 406 999 q 383 868 406 917 q 349 793 361 818 q 277 630 303 694 q 238 496 251 565 q 244 469 235 479 q 269 460 254 460 q 296 467 283 460 q 314 488 308 475 q 412 642 360 590 q 535 694 464 694 q 626 663 594 694 q 657 586 657 632 q 485 444 657 444 q 435 426 451 443 q 418 382 418 408 q 451 328 418 347 q 543 310 485 310 q 728 381 682 310 q 757 400 739 400 q 782 387 771 400 q 793 358 793 374 q 790 346 793 350 q 778 323 783 335 q 767 301 772 311 q 632 88 706 175 q 450 0 558 0 q 346 63 381 0 q 290 274 311 125 q 276 310 288 297 q 249 322 264 322 q 217 303 231 322 q 204 253 204 285 l 204 147 q 94 0 204 0 z "},"l":{"ha":350,"x_min":-14,"x_max":453,"o":"m 118 0 q -14 143 -14 0 q 33 381 -14 246 l 64 469 q 177 784 138 683 q 258 942 217 885 q 350 999 300 999 q 407 947 407 999 q 383 868 407 914 q 221 469 264 628 q 204 378 204 413 q 219 328 204 346 q 269 310 233 310 q 382 381 336 310 q 404 393 390 393 q 438 376 424 393 q 444 346 453 360 l 418 294 q 342 154 379 214 q 248 47 306 94 q 118 0 190 0 z "},"m":{"ha":1058,"x_min":-14,"x_max":1161,"o":"m 88 0 q 13 28 40 0 q -14 101 -14 57 q 32 381 -14 246 q 123 613 82 531 q 201 694 164 694 q 234 680 224 694 q 244 642 244 665 q 253 606 244 619 q 276 592 263 592 q 319 615 296 592 q 488 694 401 694 q 567 671 536 694 q 608 607 597 647 q 621 592 613 592 q 643 607 629 592 q 822 697 725 697 q 935 662 899 697 q 971 569 971 626 q 965 524 971 544 q 949 472 960 504 q 932 425 938 444 q 926 382 926 406 q 943 328 926 346 q 994 310 960 310 q 1045 328 1024 310 q 1090 381 1067 346 q 1113 393 1099 393 q 1147 376 1132 393 q 1153 346 1161 360 l 1126 294 q 1051 154 1088 214 q 956 47 1014 94 q 826 0 899 0 q 735 41 764 0 q 707 147 707 82 q 717 226 707 188 q 743 313 726 264 q 756 352 746 321 q 765 403 765 383 q 751 439 765 426 q 713 451 738 451 q 639 419 674 451 q 583 335 604 386 q 563 232 563 283 q 568 185 563 213 q 570 166 568 179 q 572 138 572 153 q 545 42 572 82 q 449 3 518 3 q 338 124 338 3 q 348 199 338 163 q 378 286 358 236 q 400 350 393 326 q 407 394 407 374 q 354 449 407 449 q 281 415 315 449 q 225 326 246 381 q 204 210 204 271 l 204 147 q 179 41 204 82 q 88 0 154 0 z "},"n":{"ha":696,"x_min":-14,"x_max":799,"o":"m 88 0 q 13 28 40 0 q -14 101 -14 57 q 32 381 -14 217 q 115 603 68 511 q 199 694 163 694 q 244 642 244 694 q 272 590 244 590 q 317 615 292 590 q 485 694 399 694 q 578 658 546 694 q 610 567 610 622 q 604 522 610 542 q 588 469 599 501 q 571 422 576 442 q 565 379 565 403 q 581 326 565 343 q 632 310 597 310 q 683 327 661 310 q 728 381 704 344 q 750 393 736 393 q 784 376 769 393 q 790 346 799 360 l 764 294 q 688 154 725 214 q 594 47 651 94 q 464 0 536 0 q 374 40 403 0 q 346 144 346 81 q 356 223 346 185 q 382 310 365 261 q 394 349 385 318 q 404 400 404 381 q 390 436 404 424 q 351 449 376 449 q 278 415 313 449 q 222 326 243 381 q 201 210 201 271 l 201 147 q 88 0 201 0 z "},"o":{"ha":661,"x_min":8,"x_max":764,"o":"m 693 381 q 714 390 699 390 q 749 376 733 390 q 756 346 764 363 q 660 210 717 264 q 513 156 603 156 l 496 156 q 372 42 443 83 q 224 0 300 0 q 68 63 128 0 q 8 233 8 126 q 59 447 8 339 q 197 624 110 554 q 390 694 285 694 q 538 637 482 694 q 593 456 593 579 q 572 313 593 382 l 582 313 q 693 381 646 313 m 303 288 q 363 308 336 288 q 406 358 390 328 q 421 418 421 389 q 402 471 421 450 q 344 492 383 492 q 263 451 296 492 q 231 363 231 411 q 248 308 231 329 q 303 288 265 288 z "},"p":{"ha":678,"x_min":-160,"x_max":781,"o":"m 710 381 q 731 390 715 390 q 765 376 750 390 q 772 346 781 363 q 676 210 733 264 q 529 156 619 156 l 521 156 q 406 42 471 83 q 276 0 342 0 q 186 29 221 0 q 151 118 151 58 q 154 156 151 142 l 154 161 q 150 176 154 171 q 139 181 146 181 q 115 156 122 181 l 106 104 q 60 -99 79 -25 q 10 -226 40 -174 q -62 -278 -21 -278 q -160 -182 -160 -278 q -138 -72 -160 -136 q -65 122 -117 -7 l -25 224 l 32 381 l 42 408 q 110 599 89 547 q 151 673 131 651 q 207 694 172 694 q 263 647 271 694 q 266 632 261 638 q 281 626 271 626 q 307 639 294 626 q 373 683 340 671 q 443 694 406 694 q 576 638 526 694 q 625 483 625 581 q 599 313 625 399 q 710 381 663 313 m 303 288 q 363 308 336 288 q 406 358 390 328 q 421 418 421 389 q 402 471 421 450 q 344 492 383 492 q 263 451 296 492 q 231 363 231 411 q 248 308 231 329 q 303 288 265 288 z "},"q":{"ha":640,"x_min":4,"x_max":674,"o":"m 315 -279 q 256 -253 279 -279 q 232 -181 232 -228 q 239 -128 232 -160 q 267 -53 249 -86 q 317 33 285 -19 q 362 111 347 81 q 376 172 376 142 q 368 189 376 189 q 350 168 358 189 q 271 44 318 89 q 163 0 224 0 q 48 56 92 0 q 4 197 4 113 q 46 423 4 307 q 169 617 88 539 q 363 694 250 694 q 433 684 410 694 q 474 657 457 674 q 504 642 492 642 q 528 647 518 642 q 553 664 539 653 q 586 687 571 679 q 625 694 601 694 q 674 643 674 694 q 665 603 674 625 q 638 543 657 582 q 573 394 601 468 q 517 207 544 319 l 474 29 l 425 -169 q 382 -251 413 -224 q 315 -279 351 -279 m 289 288 q 349 308 322 288 q 392 358 376 328 q 407 418 407 389 q 388 471 407 450 q 331 492 369 492 q 249 451 282 492 q 217 363 217 411 q 234 308 217 329 q 289 288 251 288 z "},"r":{"ha":549,"x_min":28,"x_max":651,"o":"m 581 381 q 603 393 589 393 q 637 376 622 393 q 643 346 651 360 l 617 294 q 541 154 578 214 q 447 47 504 94 q 317 0 389 0 q 201 42 238 0 q 164 146 164 85 q 180 245 164 196 q 225 360 196 294 q 253 429 244 404 q 261 472 261 454 q 243 507 261 486 q 188 542 225 528 q 94 346 163 488 q 72 332 89 332 q 42 344 57 332 q 28 369 28 356 q 32 381 28 376 q 117 563 69 433 q 83 588 94 571 q 71 640 71 606 q 106 726 71 686 q 194 765 142 765 q 319 740 257 765 q 419 677 381 715 q 458 601 458 639 q 451 551 458 575 q 429 494 443 528 q 406 433 414 458 q 399 378 399 407 q 419 328 399 347 q 485 310 440 310 q 535 327 514 310 q 581 381 557 344 z "},"s":{"ha":538,"x_min":-10,"x_max":640,"o":"m 571 381 q 593 393 579 393 q 626 376 611 393 q 633 346 640 360 q 550 194 593 261 q 423 64 507 126 q 222 1 339 1 q 48 66 106 1 q -10 226 -10 131 q 32 381 -10 310 l 38 389 q 107 492 57 415 q 194 617 158 569 q 270 697 229 664 q 354 729 311 729 q 449 700 415 729 q 481 635 482 671 q 469 611 481 621 q 435 589 457 601 q 394 563 408 575 q 381 531 381 550 q 410 460 381 518 q 472 307 458 367 q 524 327 501 308 q 571 381 547 346 m 172 288 q 242 316 217 288 q 268 389 268 344 q 238 494 268 436 q 222 508 232 508 q 204 494 214 508 q 94 346 157 425 q 116 304 94 321 q 172 288 138 288 z "},"t":{"ha":394,"x_min":-11,"x_max":496,"o":"m 140 0 q 26 48 64 0 q -11 176 -11 96 q 19 339 -11 253 q 81 510 38 394 l 108 586 q 56 608 74 586 q 39 658 39 631 q 44 683 39 674 q 58 693 49 693 q 150 724 114 693 q 203 799 186 754 q 249 873 226 854 q 301 892 272 892 q 351 843 351 892 q 328 761 351 808 q 311 710 311 728 q 329 693 311 693 l 401 693 q 417 683 411 693 q 422 654 422 672 q 406 594 422 622 q 367 565 390 565 q 269 560 296 565 q 229 538 242 556 q 203 469 217 519 q 193 413 193 433 q 222 338 193 365 q 299 311 250 311 q 372 329 339 311 q 426 381 406 347 q 449 392 433 392 q 481 376 467 392 q 489 346 496 360 l 474 315 q 394 170 435 235 q 288 53 353 106 q 140 0 222 0 z "},"u":{"ha":694,"x_min":1,"x_max":797,"o":"m 726 381 q 749 393 735 393 q 783 376 768 393 q 789 346 797 360 l 763 294 q 687 154 724 214 q 592 47 650 94 q 463 0 535 0 q 343 151 343 0 q 347 208 343 178 q 251 60 306 118 q 124 1 197 1 q 33 42 65 1 q 1 167 1 83 q 32 381 1 282 q 131 616 82 538 q 238 694 181 694 q 281 639 281 694 q 273 579 281 608 q 249 500 265 550 q 225 426 232 453 q 218 374 218 400 q 231 326 218 342 q 276 311 243 311 q 393 408 360 311 l 394 414 q 483 625 439 556 q 579 694 528 694 q 622 639 622 694 q 615 584 622 613 q 590 506 607 556 q 567 435 575 463 q 560 386 560 408 q 580 329 560 349 q 631 310 600 310 q 681 328 660 310 q 726 381 703 346 z "},"v":{"ha":619,"x_min":13,"x_max":722,"o":"m 651 381 q 672 390 657 390 q 707 376 692 390 q 714 346 722 363 q 618 210 675 264 q 471 156 561 156 q 406 176 435 156 q 169 1 283 1 q 52 70 92 1 q 13 243 13 139 q 29 381 13 314 q 110 599 58 503 q 215 694 163 694 q 258 639 258 694 q 251 585 258 613 q 228 510 243 557 q 203 429 211 457 q 196 374 196 401 q 216 310 196 333 q 278 288 236 288 q 379 342 343 288 q 364 471 364 410 q 399 633 364 569 q 503 697 435 697 q 563 673 543 697 q 583 603 583 649 q 490 321 583 500 q 540 313 511 313 q 651 381 604 313 z "},"w":{"ha":939,"x_min":13,"x_max":1042,"o":"m 971 381 q 992 390 976 390 q 1026 376 1011 390 q 1033 346 1042 363 q 938 210 994 264 q 790 156 881 156 q 747 164 768 156 q 519 1 628 1 q 446 42 475 1 q 417 182 417 83 q 419 244 417 197 q 302 58 368 115 q 169 1 236 1 q 52 70 92 1 q 13 243 13 139 q 29 381 13 314 q 110 599 58 503 q 215 694 163 694 q 258 639 258 694 q 251 585 258 613 q 228 510 243 557 q 203 429 211 457 q 196 374 196 401 q 215 310 196 333 q 271 288 235 288 q 347 321 318 288 q 388 406 375 354 q 394 456 393 431 q 396 489 396 482 q 408 592 396 549 q 455 673 426 651 q 533 694 483 694 q 621 600 621 694 q 611 551 621 578 q 583 489 601 525 q 555 420 564 444 q 546 374 546 396 q 565 310 546 333 q 621 288 585 288 q 732 346 688 288 q 718 471 718 415 q 753 633 718 569 q 857 697 789 697 q 931 604 931 697 q 906 478 931 553 q 836 314 882 403 q 860 313 844 313 q 971 381 924 313 z "},"x":{"ha":711,"x_min":26,"x_max":813,"o":"m 808 358 q 813 358 808 351 l 806 346 q 715 201 760 267 q 596 67 669 135 q 447 0 522 0 q 359 50 386 0 q 329 193 332 100 q 244 56 296 111 q 122 0 192 0 q 51 30 75 0 q 26 104 26 60 q 46 187 26 146 q 101 255 65 228 q 182 282 136 282 q 265 323 238 282 q 292 417 292 364 q 277 476 292 453 q 233 499 263 499 q 163 460 192 499 q 94 346 133 421 l 32 381 q 69 449 51 408 q 92 499 88 490 q 170 644 133 594 q 264 694 207 694 q 352 644 319 694 q 388 518 385 593 q 471 644 417 594 q 592 694 525 694 q 667 666 642 694 q 692 592 692 638 q 670 501 692 544 q 619 457 649 457 q 603 469 613 457 q 584 488 594 481 q 556 496 574 496 q 496 464 519 496 q 472 390 472 432 q 508 311 472 340 q 594 282 544 282 q 679 309 644 282 q 743 381 714 336 q 758 398 753 394 q 766 401 763 401 q 772 400 769 400 q 797 385 786 400 q 808 358 808 369 z "},"y":{"ha":690,"x_min":-112,"x_max":793,"o":"m 722 381 q 743 390 728 390 q 778 376 763 390 q 785 346 793 363 l 757 288 q 681 133 713 190 q 605 38 649 76 q 506 0 561 0 q 457 31 475 0 q 364 -199 413 -114 q 256 -324 315 -285 q 118 -362 196 -362 q -52 -306 8 -362 q -112 -147 -112 -249 q -90 -38 -112 -83 q -40 26 -67 7 q -11 28 -12 44 q 31 -57 -6 -25 q 129 -89 68 -89 q 244 -55 190 -89 q 332 36 297 -21 q 374 161 367 93 l 374 165 q 369 181 374 175 q 358 188 365 188 q 335 164 344 188 q 256 53 306 93 q 139 14 206 14 q 40 53 79 14 q 1 167 1 92 q 32 381 1 282 q 131 616 82 538 q 238 694 181 694 q 281 639 281 694 q 273 579 281 608 q 249 500 265 550 q 225 426 232 453 q 218 374 218 400 q 231 326 218 342 q 276 311 243 311 q 349 337 321 311 q 394 414 376 363 q 483 625 439 556 q 579 694 528 694 q 626 680 610 694 q 642 633 642 665 q 633 581 642 608 q 601 499 624 554 q 579 441 594 481 q 551 364 564 401 q 543 314 543 335 q 556 273 543 286 q 588 260 568 260 q 722 381 639 260 z "},"z":{"ha":625,"x_min":13,"x_max":726,"o":"m 39 -3 q 13 53 13 -3 q 50 166 13 113 q 138 260 88 219 q 263 353 188 301 q 350 419 322 394 q 378 461 378 443 q 313 500 378 500 q 194 462 246 500 q 94 346 142 424 l 32 381 q 93 506 68 440 q 139 667 118 572 q 156 705 146 693 q 185 717 167 717 q 214 710 206 717 q 231 689 222 703 q 241 672 235 678 q 260 667 247 667 q 297 676 275 667 q 338 690 319 685 q 383 694 356 694 q 441 690 414 694 q 474 685 468 686 q 542 676 518 676 q 631 694 586 676 q 638 696 633 696 q 653 688 647 696 q 657 671 660 681 q 608 541 646 597 q 525 449 569 485 q 421 374 481 413 q 363 333 381 347 q 346 306 346 318 q 370 280 346 289 q 444 271 394 271 q 566 301 508 271 q 657 381 624 332 q 699 411 676 411 q 718 400 710 411 q 726 374 726 389 q 719 346 726 363 q 634 193 676 261 q 516 63 592 125 q 343 0 440 0 q 272 11 296 0 q 226 43 249 22 q 200 63 211 57 q 169 69 189 69 q 120 59 136 69 q 88 28 104 49 q 67 5 76 13 q 39 -3 57 -3 z "},"ﬁ":{"ha":701,"x_min":-21,"x_max":804,"o":"m 735 381 q 757 393 743 393 q 790 377 775 393 q 797 347 804 361 q 768 289 785 326 q 694 150 729 208 q 606 46 660 92 q 485 0 551 0 q 388 47 418 0 q 357 174 357 94 q 392 381 357 269 q 464 572 431 501 l 404 575 q 260 582 356 576 q 214 293 232 460 q 208 233 211 275 q 192 109 201 156 q 155 31 183 63 q 72 0 126 0 q 1 25 22 0 q -21 103 -21 50 q -8 213 -21 147 q 32 381 6 279 q 93 588 58 479 l 75 588 q 15 601 33 588 q -4 635 -4 614 q 11 674 -4 656 q 40 693 26 693 l 133 693 q 219 869 171 788 q 353 1015 279 967 q 544 1063 428 1063 q 705 1022 629 1063 q 776 875 781 982 l 776 865 l 776 863 q 639 751 764 751 q 524 811 546 751 q 492 869 508 853 q 436 885 475 885 q 289 693 347 885 l 590 694 l 592 694 q 639 632 639 694 q 631 572 639 603 q 606 499 622 542 q 594 465 603 492 q 581 418 586 439 q 576 381 576 397 q 593 329 576 347 q 639 311 610 311 q 690 328 668 311 q 735 381 711 346 z "},"ﬂ":{"ha":710,"x_min":-21,"x_max":813,"o":"m 742 381 q 764 393 750 393 q 798 376 783 393 q 804 346 813 360 l 778 294 q 702 154 739 214 q 608 47 665 94 q 478 0 550 0 q 346 143 346 0 q 393 381 346 246 l 428 482 q 538 783 506 707 q 509 837 531 817 q 453 857 488 857 q 300 693 363 857 l 436 693 q 451 683 446 693 q 457 654 457 672 q 441 594 457 622 q 401 565 425 565 l 264 578 q 214 293 232 454 q 208 233 211 275 q 192 109 201 156 q 155 31 183 63 q 72 0 126 0 q 1 25 22 0 q -21 103 -21 50 q -8 213 -21 147 q 32 381 6 279 q 94 588 63 492 l 75 588 q 15 601 33 588 q -4 635 -4 614 q 11 674 -4 656 q 40 693 26 693 l 133 693 q 291 966 204 869 q 488 1063 378 1063 q 647 974 613 1063 q 710 999 676 999 q 767 947 767 999 q 743 868 767 914 q 581 469 624 628 q 564 378 564 413 q 578 328 564 346 q 629 310 593 310 q 742 381 696 310 z "},"ª":{"ha":472,"x_min":4,"x_max":546,"o":"m 100 508 q 28 547 53 508 q 4 649 4 585 q 32 793 4 718 q 114 919 60 868 q 243 971 168 971 q 289 965 274 971 q 317 947 304 958 q 338 936 329 936 q 371 951 353 936 q 392 966 382 961 q 418 971 403 971 q 450 938 450 971 q 445 908 450 922 q 428 869 440 893 q 406 819 413 839 q 388 754 388 779 q 425 715 388 715 q 499 763 471 715 q 514 771 506 771 q 536 760 526 771 q 540 739 546 749 l 517 693 q 436 557 474 606 q 342 508 399 508 q 281 537 303 508 q 260 611 260 565 q 264 657 260 632 q 191 549 233 590 q 100 508 149 508 m 192 700 q 249 728 226 700 q 272 788 272 756 q 260 823 272 810 q 225 836 247 836 q 168 809 190 836 q 146 750 146 782 q 158 713 146 726 q 192 700 171 700 m 243 693 l 243 643 l 290 643 l 290 693 l 243 693 z "},"º":{"ha":326,"x_min":6,"x_max":396,"o":"m 149 511 q 45 553 85 511 q 6 667 6 596 q 39 809 6 738 q 131 927 72 881 q 260 974 189 974 q 359 936 322 974 q 396 815 396 899 q 361 666 396 736 q 269 553 326 596 q 149 511 213 511 m 201 703 q 258 731 235 703 q 281 790 281 758 q 267 825 281 811 q 229 839 254 839 q 176 812 197 839 q 154 753 154 785 q 165 717 154 731 q 201 703 176 703 z "},"μ":{"ha":694,"x_min":-122,"x_max":797,"o":"m 726 381 q 749 393 735 393 q 783 376 768 393 q 789 346 797 360 l 763 294 q 687 154 724 214 q 592 47 650 94 q 463 0 535 0 q 343 151 343 0 q 347 208 343 178 q 251 60 306 118 q 124 1 197 1 q 78 8 101 1 q 97 -99 85 -39 q 100 -131 100 -110 q 80 -205 100 -171 q 28 -259 60 -239 q -37 -279 -4 -279 q -98 -255 -74 -279 q -122 -179 -122 -231 q -117 -126 -122 -153 q -68 38 -106 -81 q 17 324 -10 224 l 32 381 q 131 616 82 538 q 238 694 181 694 q 281 639 281 694 q 273 579 281 608 q 249 500 265 550 q 225 426 232 453 q 218 374 218 400 q 231 326 218 342 q 276 311 243 311 q 393 408 360 311 l 394 414 q 483 625 439 556 q 579 694 528 694 q 622 639 622 694 q 615 584 622 613 q 590 506 607 556 q 567 435 575 463 q 560 386 560 408 q 580 329 560 349 q 631 310 600 310 q 681 328 660 310 q 726 381 703 346 z "},"¹":{"ha":264,"x_min":42,"x_max":389,"o":"m 121 346 q 42 421 42 346 q 101 600 42 485 q 147 690 125 646 q 179 767 168 733 q 185 792 185 782 q 178 808 185 804 q 157 815 171 813 q 139 819 144 817 q 133 831 133 822 q 174 903 133 851 q 268 995 215 954 q 357 1036 321 1036 q 389 1004 389 1036 q 372 949 389 985 q 312 807 336 875 q 263 658 288 739 q 221 489 242 583 q 199 401 208 428 q 173 360 190 374 q 121 346 156 346 z "},"²":{"ha":429,"x_min":-39,"x_max":492,"o":"m 256 346 q 193 358 219 346 q 129 392 167 369 q 99 410 111 404 q 76 417 88 417 q 58 410 65 417 q 51 392 51 403 q 40 362 51 375 q 7 349 29 349 q -39 403 -39 349 q -13 492 -39 443 q 78 579 13 542 q 262 705 207 656 q 317 804 317 754 q 303 847 317 831 q 261 864 289 864 q 210 848 233 864 q 179 808 188 832 q 144 776 169 776 q 119 788 129 776 q 110 822 110 799 q 114 854 110 836 q 189 988 133 938 q 325 1039 244 1039 q 447 997 401 1039 q 492 881 492 954 q 453 758 492 813 q 365 668 415 704 q 239 589 314 632 q 164 542 181 554 q 156 526 156 536 q 159 517 156 521 q 168 513 163 513 q 179 518 174 513 q 272 561 222 561 q 328 551 301 561 q 363 540 356 540 q 400 569 382 540 q 417 578 407 578 q 431 572 425 578 q 433 556 436 565 q 360 394 403 443 q 256 346 317 346 z "},"³":{"ha":456,"x_min":31,"x_max":525,"o":"m 221 344 q 78 392 125 344 q 31 506 31 439 q 61 606 31 563 q 136 649 92 649 q 163 631 163 649 q 159 614 163 625 q 156 590 156 603 q 175 545 156 563 q 228 528 194 528 q 289 551 264 528 q 314 607 314 575 q 297 649 314 633 q 253 664 281 664 q 222 673 233 664 q 211 697 211 682 q 223 722 211 713 q 253 732 235 732 q 330 754 300 732 q 360 811 360 776 q 343 854 360 839 q 297 869 326 869 q 244 853 267 869 q 213 806 222 836 q 198 783 207 792 q 178 774 189 774 q 152 788 161 774 q 143 828 143 803 q 172 931 143 883 q 251 1008 201 979 q 358 1036 301 1036 q 479 996 433 1036 q 525 888 525 956 q 483 779 525 826 q 372 717 442 732 q 351 700 351 713 q 367 686 351 692 q 430 641 407 676 q 453 556 453 606 q 388 403 453 461 q 221 344 322 344 z "},"⁄":{"ha":486,"x_min":-21,"x_max":751,"o":"m 4 -85 q -15 -73 -10 -82 q -17 -50 -21 -64 q 239 361 -3 13 q 725 1031 481 710 l 751 1013 l 539 681 q 151 82 269 256 q 4 -85 32 -92 z "},"½":{"ha":1056,"x_min":107,"x_max":1024,"o":"m 208 346 q 129 421 129 346 q 189 600 129 485 q 234 690 213 646 q 267 767 256 733 q 272 792 272 782 q 265 808 272 804 q 244 815 258 813 q 226 819 232 817 q 221 831 221 822 q 262 903 221 851 q 356 995 303 954 q 444 1036 408 1036 q 476 1004 476 1036 q 460 949 476 985 q 399 807 424 875 q 350 658 375 739 q 308 489 329 583 q 287 401 296 428 q 260 360 278 374 q 208 346 243 346 m 144 -85 q 117 -72 128 -85 q 107 -42 107 -58 q 108 -28 107 -32 q 358 368 122 35 q 850 1031 594 701 l 876 1013 l 849 965 q 497 390 619 589 q 275 53 374 192 q 144 -85 176 -85 m 788 -3 q 725 9 751 -3 q 661 43 699 21 q 631 62 643 56 q 608 68 619 68 q 590 61 597 68 q 583 43 583 54 q 572 13 583 26 q 539 0 561 0 q 493 54 493 0 q 519 144 493 94 q 610 231 544 193 q 794 356 739 307 q 849 456 849 406 q 835 499 849 482 q 793 515 821 515 q 742 499 765 515 q 711 460 718 483 q 676 428 701 428 q 651 439 661 428 q 642 474 642 450 q 646 506 642 488 q 722 640 667 589 q 857 690 778 690 q 978 648 933 690 q 1024 532 1024 606 q 985 410 1024 464 q 897 319 947 356 q 771 240 846 283 q 696 193 713 206 q 688 178 688 188 q 691 168 688 172 q 700 164 694 164 q 711 169 706 164 q 804 213 754 213 q 860 202 833 213 q 894 192 888 192 q 932 221 914 192 q 947 229 939 229 q 963 223 957 229 q 965 207 968 217 q 893 46 938 94 q 788 -3 849 -3 z "},"¼":{"ha":1069,"x_min":79,"x_max":1043,"o":"m 194 346 q 115 421 115 346 q 175 600 115 485 q 220 690 199 646 q 253 767 242 733 q 258 792 258 782 q 251 808 258 804 q 231 815 244 813 q 213 819 218 817 q 207 831 207 822 q 248 903 207 851 q 342 995 289 954 q 431 1036 394 1036 q 463 1004 463 1036 q 446 949 463 985 q 385 807 410 875 q 336 658 361 739 q 294 489 315 583 q 273 401 282 428 q 247 360 264 374 q 194 346 229 346 m 849 1013 l 821 965 q 469 390 592 589 q 247 53 346 192 q 117 -85 149 -85 q 90 -72 100 -85 q 79 -40 79 -58 q 81 -28 79 -32 q 333 372 96 35 q 822 1031 571 708 l 849 1013 m 1001 322 q 1024 332 1014 332 q 1037 324 1032 332 q 1042 301 1042 317 q 1031 243 1042 276 q 993 184 1021 210 q 919 158 965 158 l 903 158 q 872 59 886 92 q 839 13 857 26 q 790 0 821 0 q 747 11 761 0 q 733 49 733 22 q 774 189 733 94 q 693 203 728 203 q 633 182 660 203 q 603 168 617 168 q 567 185 582 168 q 551 225 551 201 q 574 276 551 253 q 690 411 653 361 q 726 504 726 461 q 722 524 726 517 q 707 532 717 532 q 685 518 692 532 q 654 542 665 524 q 643 585 643 560 q 676 667 643 631 q 769 704 708 704 q 856 669 825 704 q 886 582 886 635 q 838 458 886 519 q 697 318 790 397 q 690 307 690 311 q 701 301 690 301 l 825 301 q 922 506 889 442 q 978 603 954 571 q 1026 635 1003 635 q 1043 619 1043 635 q 1034 582 1043 607 q 1013 528 1025 557 q 961 393 982 456 q 938 307 946 346 q 1001 322 990 314 z "},"¾":{"ha":1172,"x_min":31,"x_max":1146,"o":"m 453 556 q 388 403 453 461 q 221 344 322 344 q 78 392 125 344 q 31 506 31 439 q 61 606 31 563 q 136 649 92 649 q 163 631 163 649 q 159 614 163 625 q 156 590 156 603 q 175 545 156 563 q 228 528 194 528 q 289 551 264 528 q 314 607 314 575 q 297 649 314 633 q 253 664 281 664 q 222 673 233 664 q 211 697 211 682 q 223 722 211 713 q 253 732 235 732 q 330 754 300 732 q 360 811 360 776 q 343 854 360 839 q 297 869 326 869 q 244 853 267 869 q 213 806 222 836 q 198 783 207 792 q 178 774 189 774 q 152 788 161 774 q 143 828 143 803 q 172 931 143 883 q 251 1008 201 979 q 358 1036 301 1036 q 479 996 433 1036 q 525 888 525 956 q 483 779 525 826 q 372 717 442 732 q 351 700 351 713 q 367 686 351 692 q 430 641 407 676 q 453 556 453 606 m 951 1013 l 924 965 q 572 390 694 589 q 350 53 449 192 q 219 -85 251 -85 q 192 -72 203 -85 q 182 -40 182 -58 q 183 -28 182 -32 q 436 372 199 35 q 925 1031 674 708 l 951 1013 m 1104 322 q 1126 332 1117 332 q 1140 324 1135 332 q 1144 301 1144 317 q 1134 243 1144 276 q 1096 184 1124 210 q 1022 158 1068 158 l 1006 158 q 974 59 989 92 q 942 13 960 26 q 893 0 924 0 q 850 11 864 0 q 836 49 836 22 q 876 189 836 94 q 796 203 831 203 q 736 182 763 203 q 706 168 719 168 q 669 185 685 168 q 654 225 654 201 q 676 276 654 253 q 792 411 756 361 q 829 504 829 461 q 824 524 829 517 q 810 532 819 532 q 788 518 794 532 q 757 542 768 524 q 746 585 746 560 q 778 667 746 631 q 872 704 811 704 q 958 669 928 704 q 989 582 989 635 q 941 458 989 519 q 800 318 893 397 q 793 307 793 311 q 804 301 793 301 l 928 301 q 1024 506 992 442 q 1081 603 1057 571 q 1129 635 1106 635 q 1146 619 1146 635 q 1137 582 1146 607 q 1115 528 1128 557 q 1064 393 1085 456 q 1040 307 1049 346 q 1104 322 1093 314 z "},".":{"ha":331,"x_min":42,"x_max":275,"o":"m 158 -14 q 76 21 111 -14 q 42 103 42 56 q 76 185 42 151 q 158 219 111 219 q 241 185 207 219 q 275 103 275 151 q 241 21 275 56 q 158 -14 207 -14 z "},",":{"ha":331,"x_min":-22,"x_max":275,"o":"m 67 -192 q 3 -172 29 -192 q -22 -118 -22 -153 q -6 -74 -22 -92 q 33 -60 10 -56 q 72 -62 47 -62 q 135 -51 108 -62 q 175 -25 161 -40 q 189 3 189 -10 q 185 14 189 10 q 173 13 179 18 q 158 4 167 8 q 135 0 150 0 q 71 29 100 0 q 42 103 42 58 q 76 185 42 151 q 158 219 111 219 q 242 181 208 219 q 275 74 275 142 q 245 -60 275 0 q 167 -156 215 -121 q 67 -192 119 -192 z "},":":{"ha":400,"x_min":42,"x_max":417,"o":"m 158 -14 q 76 21 111 -14 q 42 103 42 56 q 76 185 42 151 q 158 219 111 219 q 241 185 207 219 q 275 103 275 151 q 241 21 275 56 q 158 -14 207 -14 m 300 461 q 218 496 253 461 q 183 578 183 531 q 218 660 183 626 q 300 694 253 694 q 383 660 349 694 q 417 578 417 626 q 383 496 417 531 q 300 461 349 461 z "},";":{"ha":400,"x_min":-22,"x_max":417,"o":"m 300 461 q 218 496 253 461 q 183 578 183 531 q 218 660 183 626 q 300 694 253 694 q 383 660 349 694 q 417 578 417 626 q 383 496 417 531 q 300 461 349 461 m 67 -192 q 3 -172 29 -192 q -22 -118 -22 -153 q -6 -74 -22 -92 q 33 -60 10 -56 q 72 -62 47 -62 q 135 -51 108 -62 q 175 -25 161 -40 q 189 3 189 -10 q 185 14 189 10 q 173 13 179 18 q 158 4 167 8 q 135 0 150 0 q 71 29 100 0 q 42 103 42 58 q 76 185 42 151 q 158 219 111 219 q 242 181 208 219 q 275 74 275 142 q 245 -60 275 0 q 167 -156 215 -121 q 67 -192 119 -192 z "},"…":{"ha":956,"x_min":42,"x_max":900,"o":"m 783 -14 q 701 21 736 -14 q 667 103 667 56 q 701 185 667 151 q 783 219 736 219 q 866 185 832 219 q 900 103 900 151 q 866 21 900 56 q 783 -14 832 -14 m 472 -14 q 390 21 425 -14 q 356 103 356 56 q 390 185 356 151 q 472 219 425 219 q 555 185 521 219 q 589 103 589 151 q 555 21 589 56 q 472 -14 521 -14 m 158 -14 q 76 21 111 -14 q 42 103 42 56 q 76 185 42 151 q 158 219 111 219 q 241 185 207 219 q 275 103 275 151 q 241 21 275 56 q 158 -14 207 -14 z "},"!":{"ha":415,"x_min":44,"x_max":535,"o":"m 250 324 q 210 386 210 324 q 245 660 210 501 q 336 934 281 819 q 453 1049 392 1049 q 514 1026 493 1049 q 535 958 535 1003 q 478 730 535 883 q 351 450 421 576 q 250 324 282 324 m 161 -14 q 79 21 114 -14 q 44 103 44 56 q 79 185 44 151 q 161 219 114 219 q 244 185 210 219 q 278 103 278 151 q 244 21 278 56 q 161 -14 210 -14 z "},"¡":{"ha":406,"x_min":-8,"x_max":482,"o":"m 365 786 q 448 752 414 786 q 482 669 482 718 q 448 588 482 622 q 365 553 414 553 q 283 588 318 553 q 249 669 249 622 q 283 752 249 718 q 365 786 318 786 m 276 449 q 317 386 317 449 q 281 112 317 271 q 190 -162 246 -47 q 74 -276 135 -276 q 13 -253 33 -276 q -8 -186 -8 -231 q 49 42 -8 -111 q 175 322 106 196 q 276 449 244 449 z "},"?":{"ha":571,"x_min":111,"x_max":686,"o":"m 314 340 q 297 317 313 326 q 263 307 282 307 q 225 321 240 307 q 211 361 210 335 q 250 470 215 428 q 347 560 285 513 q 426 631 401 601 q 451 704 451 661 q 427 773 451 746 q 357 800 403 800 q 270 769 307 800 q 217 689 233 739 q 194 653 208 665 q 164 642 181 642 q 128 660 143 642 q 113 713 113 678 q 118 758 113 735 q 232 959 147 882 q 439 1036 317 1036 q 619 972 551 1036 q 686 797 686 908 q 657 672 686 724 q 585 588 628 621 q 475 517 542 556 q 390 462 419 483 q 338 410 360 440 q 314 340 317 381 m 228 -14 q 146 21 181 -14 q 111 103 111 56 q 146 185 111 151 q 228 219 181 219 q 310 185 276 219 q 344 103 344 151 q 310 21 344 56 q 228 -14 276 -14 z "},"¿":{"ha":571,"x_min":-57,"x_max":518,"o":"m 401 774 q 484 740 450 774 q 518 657 518 706 q 484 575 518 610 q 401 540 450 540 q 319 575 354 540 q 285 657 285 610 q 319 740 285 706 q 401 774 354 774 m 315 419 q 332 443 317 433 q 367 453 347 453 q 404 439 389 453 q 418 399 419 425 q 379 290 414 332 q 282 200 344 247 q 203 128 228 158 q 178 56 178 99 q 202 -13 178 14 q 272 -40 226 -40 q 359 -10 322 -40 q 413 71 396 21 q 435 106 421 94 q 465 118 449 118 q 501 100 486 118 q 517 47 517 82 q 511 1 517 25 q 397 -199 482 -122 q 190 -276 313 -276 q 10 -212 78 -276 q -57 -37 -57 -149 q -28 88 -57 36 q 44 172 1 139 q 154 243 88 204 q 240 298 210 276 q 291 349 269 319 q 315 419 313 379 z "},"·":{"ha":400,"x_min":125,"x_max":358,"o":"m 242 410 q 160 444 194 410 q 125 526 125 479 q 160 609 125 575 q 242 643 194 643 q 324 609 290 643 q 358 526 358 575 q 324 444 358 479 q 242 410 290 410 z "},"•":{"ha":517,"x_min":125,"x_max":475,"o":"m 300 351 q 213 375 253 351 q 149 439 172 399 q 125 526 125 479 q 149 614 125 574 q 213 678 172 654 q 300 701 253 701 q 388 678 347 701 q 451 614 428 654 q 475 526 475 574 q 451 439 475 479 q 388 375 428 399 q 300 351 347 351 z "},"*":{"ha":486,"x_min":101,"x_max":531,"o":"m 292 517 q 251 571 251 517 q 263 638 251 600 q 289 710 274 676 q 212 657 254 681 q 140 633 169 633 q 104 656 114 633 q 101 669 101 667 q 156 722 101 701 q 274 750 211 743 q 174 801 221 769 q 128 863 128 832 q 135 883 128 875 q 163 897 144 897 q 230 862 190 897 q 300 783 269 826 q 293 863 293 821 q 304 940 293 910 q 342 969 315 969 q 371 956 361 969 q 381 918 381 942 q 369 848 381 888 q 340 776 357 808 q 419 829 376 806 q 492 853 463 853 q 528 831 518 853 q 531 817 531 822 q 476 765 531 785 q 358 738 421 744 q 458 686 411 718 q 504 624 504 654 q 497 603 504 611 q 469 589 488 589 q 402 625 442 589 q 332 704 363 661 q 339 624 339 665 q 328 547 339 576 q 292 517 317 517 z "},"#":{"ha":801,"x_min":107,"x_max":854,"o":"m 854 672 l 717 672 l 642 438 l 760 438 l 760 396 l 628 396 q 546 158 578 242 q 487 37 514 75 q 431 -1 460 -1 q 385 42 385 -1 q 501 396 385 122 l 365 396 q 276 160 311 244 q 211 38 240 76 q 153 -1 182 -1 q 107 42 107 -1 q 140 172 107 85 q 236 396 172 258 l 161 396 l 161 438 l 256 438 l 371 672 l 256 672 l 256 714 l 392 714 l 549 1033 l 578 1022 l 474 714 l 647 714 l 758 949 l 799 1033 l 828 1022 l 729 714 l 854 714 l 854 672 m 519 438 l 626 672 l 460 672 l 379 438 l 519 438 z "},"/":{"ha":361,"x_min":-104,"x_max":519,"o":"m -75 -156 q -104 -126 -104 -156 q 77 266 -104 -65 q 490 983 258 597 l 519 972 q 328 579 439 810 q 117 148 188 289 q -3 -74 46 7 q -75 -156 -53 -156 z "},"\\":{"ha":375,"x_min":49,"x_max":329,"o":"m 279 -151 q 193 135 242 -114 q 72 822 144 383 l 49 967 l 78 979 l 171 608 q 294 102 260 256 q 329 -114 329 -51 q 321 -151 329 -143 q 300 -162 310 -162 q 279 -151 290 -162 z "},"(":{"ha":389,"x_min":133,"x_max":600,"o":"m 263 -156 q 133 186 133 -12 q 188 492 133 338 q 342 774 242 646 q 578 979 443 903 l 600 954 q 409 732 490 868 q 284 438 328 596 q 240 128 240 279 q 288 -144 240 -25 l 263 -156 z "},")":{"ha":411,"x_min":-122,"x_max":344,"o":"m 215 976 q 344 635 344 833 q 290 329 344 483 q 135 47 236 175 q -100 -158 35 -82 l -122 -133 q 69 89 -12 -47 q 194 383 150 225 q 238 693 238 542 q 190 965 238 846 l 215 976 z "},"{":{"ha":458,"x_min":107,"x_max":622,"o":"m 335 764 q 394 922 335 865 q 553 979 453 979 q 622 972 581 979 l 600 875 q 554 881 578 881 q 468 847 499 881 q 438 767 438 814 q 439 741 438 751 q 442 722 440 731 q 447 665 447 686 q 394 503 447 574 q 254 408 342 433 q 320 363 299 394 q 342 286 342 331 q 324 203 342 240 q 272 115 306 165 q 231 47 244 74 q 218 -8 218 21 q 236 -58 218 -36 q 289 -81 254 -81 q 331 -72 308 -81 l 308 -156 q 251 -162 274 -162 q 146 -126 185 -162 q 107 -40 107 -90 q 122 33 107 1 q 168 101 138 64 q 218 181 201 146 q 235 267 235 217 q 206 327 235 304 q 110 350 176 350 l 144 469 q 290 524 235 469 q 344 661 344 579 q 339 714 344 681 q 337 736 339 721 q 335 764 335 751 z "},"}":{"ha":431,"x_min":-74,"x_max":442,"o":"m 314 549 q 343 488 314 511 q 439 465 372 465 l 404 346 q 259 291 314 346 q 204 154 204 236 q 210 101 204 135 q 212 79 210 94 q 214 51 214 64 q 155 -107 214 -50 q -4 -164 96 -164 q -74 -157 -32 -164 l -51 -60 q -6 -65 -29 -65 q 81 -32 50 -65 q 111 49 111 1 q 110 74 111 64 q 107 93 108 85 q 101 150 101 129 q 154 312 101 242 q 294 407 207 382 q 228 453 250 421 q 207 529 207 485 q 225 613 207 575 q 276 700 243 650 q 317 768 304 742 q 331 824 331 794 q 313 874 331 851 q 260 896 294 896 q 218 888 242 896 l 240 971 q 297 978 275 978 q 403 942 364 978 q 442 856 442 906 q 426 783 442 814 q 381 714 411 751 q 331 634 347 669 q 314 549 314 599 z "},"[":{"ha":389,"x_min":-10,"x_max":610,"o":"m 235 -156 l -10 -156 l 363 972 l 610 972 l 582 896 l 438 896 l 121 -79 l 263 -79 l 235 -156 z "},"]":{"ha":347,"x_min":-107,"x_max":513,"o":"m 268 972 l 513 972 l 140 -156 l -107 -156 l -79 -79 l 65 -79 l 382 896 l 240 896 l 268 972 z "},"-":{"ha":560,"x_min":11,"x_max":532,"o":"m 257 350 q 68 361 125 350 q 11 407 11 372 q 15 428 11 415 q 49 478 28 464 q 126 499 69 493 q 313 506 183 506 q 484 494 436 506 q 532 454 532 483 q 526 428 532 440 q 485 378 514 394 q 404 356 457 363 q 257 350 351 350 z "},"­":{"ha":560,"x_min":11,"x_max":532,"o":"m 257 350 q 68 361 125 350 q 11 407 11 372 q 15 428 11 415 q 49 478 28 464 q 126 499 69 493 q 313 506 183 506 q 484 494 436 506 q 532 454 532 483 q 526 428 532 440 q 485 378 514 394 q 404 356 457 363 q 257 350 351 350 z "},"–":{"ha":740,"x_min":25,"x_max":713,"o":"m 354 350 q 158 354 226 350 q 57 371 89 358 q 25 407 25 383 q 29 428 25 418 q 67 478 43 464 q 165 499 92 493 q 410 506 239 506 q 595 501 531 506 q 686 485 660 496 q 713 453 713 474 q 707 428 713 440 q 662 378 694 394 q 560 356 629 363 q 354 350 492 350 z "},"—":{"ha":965,"x_min":0,"x_max":965,"o":"m 468 350 q 179 354 276 350 q 41 371 82 358 q 0 408 0 383 q 4 428 0 418 q 49 478 18 464 q 181 499 79 493 q 524 506 283 506 q 801 501 708 506 q 929 485 893 496 q 965 450 965 474 q 960 428 965 444 q 908 377 947 393 q 772 356 869 361 q 468 350 675 350 z "},"_":{"ha":646,"x_min":-19,"x_max":585,"o":"m 268 -122 q 46 -112 111 -122 q -19 -76 -19 -103 q -15 -61 -19 -69 q 20 -22 -3 -33 q 108 -5 43 -10 q 324 0 174 0 q 482 -3 426 0 q 561 -16 538 -7 q 585 -42 585 -25 q 579 -61 585 -51 q 536 -99 567 -86 q 444 -117 506 -112 q 268 -122 383 -122 z "},"‚":{"ha":331,"x_min":-22,"x_max":275,"o":"m 67 -192 q 3 -172 29 -192 q -22 -118 -22 -153 q -6 -74 -22 -92 q 33 -60 10 -56 q 72 -62 47 -62 q 135 -51 108 -62 q 175 -25 161 -40 q 189 3 189 -10 q 185 14 189 10 q 173 13 179 18 q 158 4 167 8 q 135 0 150 0 q 71 29 100 0 q 42 103 42 58 q 76 185 42 151 q 158 219 111 219 q 242 181 208 219 q 275 74 275 142 q 245 -60 275 0 q 167 -156 215 -121 q 67 -192 119 -192 z "},"„":{"ha":646,"x_min":-22,"x_max":590,"o":"m 382 -192 q 319 -172 344 -192 q 293 -118 293 -153 q 309 -74 293 -92 q 349 -60 325 -56 q 388 -62 363 -62 q 450 -51 424 -62 q 490 -25 476 -40 q 504 3 504 -10 q 500 14 504 10 q 488 13 494 18 q 474 4 482 8 q 450 0 465 0 q 386 29 415 0 q 357 103 357 58 q 392 185 357 151 q 474 219 426 219 q 557 181 524 219 q 590 74 590 142 q 560 -60 590 0 q 483 -156 531 -121 q 382 -192 435 -192 m 67 -192 q 3 -172 29 -192 q -22 -118 -22 -153 q -6 -74 -22 -92 q 33 -60 10 -56 q 72 -62 47 -62 q 135 -51 108 -62 q 175 -25 161 -40 q 189 3 189 -10 q 185 14 189 10 q 173 13 179 18 q 158 4 167 8 q 135 0 150 0 q 71 29 100 0 q 42 103 42 58 q 76 185 42 151 q 158 219 111 219 q 242 181 208 219 q 275 74 275 142 q 245 -60 275 0 q 167 -156 215 -121 q 67 -192 119 -192 z "},"“":{"ha":757,"x_min":131,"x_max":743,"o":"m 339 1042 q 402 1022 376 1042 q 428 968 428 1003 q 412 924 428 942 q 372 910 396 906 q 333 913 358 913 q 271 901 297 913 q 231 875 244 890 q 217 847 217 860 q 221 836 217 840 q 233 837 226 832 q 247 846 239 842 q 271 850 256 850 q 335 821 306 850 q 364 747 364 792 q 330 665 364 700 q 247 631 296 631 q 164 669 197 631 q 131 776 131 708 q 160 910 131 850 q 238 1006 190 971 q 339 1042 286 1042 m 654 1042 q 717 1022 692 1042 q 743 968 743 1003 q 727 924 743 942 q 688 910 711 906 q 649 913 674 913 q 586 901 613 913 q 546 875 560 890 q 532 847 532 860 q 536 836 532 840 q 548 837 542 832 q 563 846 554 842 q 586 850 571 850 q 650 821 621 850 q 679 747 679 792 q 645 665 679 700 q 563 631 611 631 q 479 669 513 631 q 446 776 446 708 q 476 910 446 850 q 553 1006 506 971 q 654 1042 601 1042 z "},"”":{"ha":757,"x_min":131,"x_max":743,"o":"m 535 631 q 472 650 497 631 q 446 704 446 669 q 462 749 446 731 q 501 763 478 767 q 540 760 515 760 q 603 771 576 760 q 643 797 629 782 q 657 825 657 813 q 653 836 657 832 q 641 835 647 840 q 626 826 635 831 q 603 822 618 822 q 539 851 568 822 q 510 925 510 881 q 544 1008 510 974 q 626 1042 579 1042 q 710 1003 676 1042 q 743 896 743 964 q 713 762 743 822 q 635 666 683 701 q 535 631 588 631 m 219 631 q 156 650 182 631 q 131 704 131 669 q 147 749 131 731 q 186 763 163 767 q 225 760 200 760 q 288 771 261 760 q 328 797 314 782 q 342 825 342 813 q 338 836 342 832 q 326 835 332 840 q 311 826 319 831 q 288 822 303 822 q 224 851 253 822 q 194 925 194 881 q 229 1008 194 974 q 311 1042 264 1042 q 394 1003 361 1042 q 428 896 428 964 q 398 762 428 822 q 320 666 368 701 q 219 631 272 631 z "},"‘":{"ha":442,"x_min":131,"x_max":428,"o":"m 339 1042 q 402 1022 376 1042 q 428 968 428 1003 q 412 924 428 942 q 372 910 396 906 q 333 913 358 913 q 271 901 297 913 q 231 875 244 890 q 217 847 217 860 q 221 836 217 840 q 233 837 226 832 q 247 846 239 842 q 271 850 256 850 q 335 821 306 850 q 364 747 364 792 q 330 665 364 700 q 247 631 296 631 q 164 669 197 631 q 131 776 131 708 q 160 910 131 850 q 238 1006 190 971 q 339 1042 286 1042 z "},"’":{"ha":442,"x_min":131,"x_max":428,"o":"m 219 631 q 156 650 182 631 q 131 704 131 669 q 147 749 131 731 q 186 763 163 767 q 225 760 200 760 q 288 771 261 760 q 328 797 314 782 q 342 825 342 813 q 338 836 342 832 q 326 835 332 840 q 311 826 319 831 q 288 822 303 822 q 224 851 253 822 q 194 925 194 881 q 229 1008 194 974 q 311 1042 264 1042 q 394 1003 361 1042 q 428 896 428 964 q 398 762 428 822 q 320 666 368 701 q 219 631 272 631 z "},"«":{"ha":889,"x_min":94,"x_max":953,"o":"m 286 325 l 468 11 q 456 -1 472 3 q 413 -4 439 -4 q 356 6 364 -4 l 108 285 q 94 321 94 299 q 106 358 94 339 q 138 392 117 376 l 458 669 q 501 687 474 681 q 556 693 528 693 q 600 687 585 693 q 606 669 615 681 l 286 325 m 624 325 l 806 11 q 793 -1 810 3 q 750 -4 776 -4 q 693 6 701 -4 l 446 285 q 432 321 432 299 q 443 358 432 339 q 475 392 454 376 l 796 669 q 838 687 811 681 q 893 693 865 693 q 938 687 922 693 q 943 669 953 681 l 624 325 z "},"»":{"ha":889,"x_min":-22,"x_max":836,"o":"m 307 364 l 125 678 q 138 690 121 686 q 181 693 154 693 q 238 683 229 693 l 485 404 q 499 368 499 390 q 488 331 499 350 q 456 297 476 313 l 135 19 q 92 2 119 8 q 38 -4 65 -4 q -7 2 8 -4 q -12 19 -22 8 l 307 364 m 644 364 l 463 678 q 475 690 458 686 q 518 693 492 693 q 575 683 567 693 l 822 404 q 836 368 836 390 q 825 331 836 350 q 793 297 814 313 l 472 19 q 430 2 457 8 q 375 -4 403 -4 q 331 2 346 -4 q 325 19 315 8 l 644 364 z "},"‹":{"ha":625,"x_min":122,"x_max":643,"o":"m 314 325 l 496 11 q 483 -1 500 3 q 440 -4 467 -4 q 383 6 392 -4 l 136 285 q 122 321 122 299 q 133 358 122 339 q 165 392 144 376 l 486 669 q 528 687 501 681 q 583 693 556 693 q 628 687 613 693 q 633 669 643 681 l 314 325 z "},"›":{"ha":611,"x_min":19,"x_max":540,"o":"m 349 364 l 167 678 q 179 690 163 686 q 222 693 196 693 q 279 683 271 693 l 526 404 q 540 368 540 390 q 529 331 540 350 q 497 297 518 313 l 176 19 q 134 2 161 8 q 79 -4 107 -4 q 35 2 50 -4 q 29 19 19 8 l 349 364 z "},"\"":{"ha":472,"x_min":153,"x_max":593,"o":"m 176 632 q 159 653 165 632 q 153 707 153 674 q 169 824 153 763 q 220 929 186 886 q 303 972 254 972 q 356 921 356 972 q 319 808 356 876 q 240 686 283 740 q 176 632 196 632 m 414 632 q 397 653 403 632 q 390 707 390 674 q 407 824 390 763 q 458 929 424 886 q 540 972 492 972 q 593 921 593 972 q 557 808 593 876 q 477 686 521 740 q 414 632 433 632 z "},"'":{"ha":292,"x_min":167,"x_max":369,"o":"m 190 632 q 173 653 179 632 q 167 707 167 674 q 183 824 167 763 q 234 929 200 886 q 317 972 268 972 q 369 921 369 972 q 333 808 369 876 q 253 686 297 740 q 190 632 210 632 z "}," ":{"ha":500,"x_min":0,"x_max":0,"o":""},"¢":{"ha":611,"x_min":115,"x_max":660,"o":"m 557 408 q 572 411 568 411 q 604 396 592 411 q 617 357 617 381 q 601 306 617 333 q 356 154 515 154 q 263 169 306 154 q 222 44 243 88 q 183 0 200 0 q 154 29 154 0 q 174 90 154 46 q 231 185 194 135 q 144 283 174 219 q 115 425 115 346 q 159 624 115 525 q 283 785 203 722 q 468 849 364 849 q 507 846 482 849 q 543 940 525 907 q 575 972 561 972 q 604 943 604 972 q 592 900 604 931 q 558 833 581 869 q 634 772 608 814 q 660 678 660 731 q 638 585 660 622 q 584 529 617 547 q 518 511 551 511 q 465 523 485 511 q 446 550 446 535 q 456 572 446 560 q 472 596 465 585 q 478 629 478 607 q 464 664 478 650 q 421 678 450 678 q 349 638 376 678 q 322 543 322 599 q 368 435 322 474 q 483 397 414 397 q 557 408 517 397 z "},"¤":{"ha":736,"x_min":92,"x_max":690,"o":"m 688 240 q 690 228 690 232 q 671 203 690 211 q 622 229 656 196 q 540 335 588 263 q 470 289 510 306 q 386 272 431 272 q 242 326 304 272 q 159 231 194 263 q 110 207 124 200 q 92 232 92 215 q 94 244 92 236 q 133 294 101 263 q 213 357 164 325 q 165 493 165 418 q 224 643 165 578 q 144 708 175 676 q 106 758 113 740 q 103 771 103 767 q 121 796 103 788 q 171 770 136 803 q 253 669 206 738 q 386 714 313 714 q 529 661 468 714 q 610 769 575 733 q 661 799 644 804 q 682 775 682 793 q 679 763 682 771 q 638 709 671 744 q 554 636 606 674 q 607 493 607 575 q 565 363 607 422 q 647 292 615 326 q 688 240 679 258 m 386 354 q 492 395 449 354 q 536 493 536 436 q 492 591 536 550 q 386 632 449 632 q 280 591 324 632 q 236 493 236 550 q 280 395 236 436 q 386 354 324 354 z "},"$":{"ha":542,"x_min":47,"x_max":643,"o":"m 550 906 q 620 853 597 890 q 643 772 643 817 q 615 690 643 731 q 551 626 588 650 q 530 626 543 621 q 510 641 517 631 q 510 661 503 651 q 524 706 524 678 q 512 742 524 728 q 476 757 500 757 q 431 738 449 757 q 414 681 414 719 q 428 626 414 654 q 469 556 442 599 q 522 463 504 503 q 540 378 540 424 q 508 243 540 303 q 416 150 475 183 q 283 117 357 117 q 219 124 254 117 q 181 0 206 43 q 132 -43 157 -43 q 82 -6 90 -43 q 99 53 78 11 q 165 143 121 94 q 78 224 110 169 q 47 356 47 279 q 74 478 47 429 q 138 548 100 526 q 210 569 175 569 q 241 563 229 569 q 253 543 253 556 q 242 523 253 535 q 224 499 231 511 q 217 463 217 486 q 239 397 217 421 q 301 374 261 374 q 361 397 338 374 q 385 457 385 419 q 374 503 385 481 q 342 565 364 525 q 297 652 313 615 q 282 733 282 689 q 332 864 282 811 q 478 917 382 917 l 485 917 q 523 1036 499 994 q 572 1078 547 1078 q 622 1042 615 1078 q 608 988 626 1026 q 550 906 589 950 z "},"€":{"ha":722,"x_min":-29,"x_max":815,"o":"m 633 636 q 588 647 604 636 q 571 675 571 658 q 578 699 571 685 q 586 729 586 714 q 568 772 586 754 q 519 789 550 789 q 388 730 446 789 q 308 581 331 671 l 708 581 l 708 536 l 300 536 q 297 490 297 506 q 299 465 297 474 l 611 465 l 611 421 l 304 421 q 378 295 322 342 q 526 249 435 249 q 621 272 567 249 q 640 276 632 276 q 682 251 665 276 q 699 192 699 226 q 674 122 699 154 q 390 -17 558 -17 q 140 83 235 -17 q 46 382 46 182 q 47 421 46 408 l -29 421 l -29 465 l 51 465 q 64 536 56 501 l -29 536 l -29 581 l 76 581 q 192 803 114 704 q 374 960 269 903 q 589 1018 478 1018 q 758 965 700 1018 q 815 819 815 911 q 786 727 815 769 q 715 660 757 685 q 633 636 672 636 z "},"ƒ":{"ha":407,"x_min":-450,"x_max":621,"o":"m -219 -362 q -390 -312 -329 -362 q -450 -174 -450 -262 q -431 -67 -450 -111 q -387 -5 -411 -24 q -362 0 -364 14 q -328 -65 -358 -40 q -246 -89 -297 -89 q -126 -49 -169 -89 q -53 76 -83 -8 q 32 364 -24 160 l 94 588 l 75 588 q 15 601 33 588 q -4 635 -4 614 q 11 674 -4 656 q 40 693 26 693 l 133 693 q 285 975 199 888 q 488 1063 371 1063 q 588 1028 556 1063 q 621 940 621 994 q 604 860 621 900 q 560 795 588 821 q 504 769 533 769 q 475 790 475 769 q 424 857 475 857 q 294 693 344 857 l 436 693 q 451 683 446 693 q 457 654 457 672 q 441 594 457 622 q 401 565 425 565 l 264 578 q 222 336 235 442 q 67 -187 179 -12 q -219 -362 -44 -362 z "},"£":{"ha":694,"x_min":-81,"x_max":811,"o":"m 604 636 q 567 647 582 636 q 553 674 553 658 q 558 693 553 679 q 581 767 581 733 q 563 806 581 793 q 519 818 546 818 q 429 745 463 818 q 394 538 396 672 l 675 538 l 675 468 l 389 468 q 335 361 375 407 q 246 290 294 315 q 239 278 239 286 q 244 268 239 272 q 260 264 250 264 l 365 264 q 531 277 476 264 q 607 325 585 290 q 640 347 621 347 q 663 336 654 347 q 672 308 672 325 q 669 290 672 304 q 583 81 631 161 q 486 0 535 0 q 386 8 428 0 q 299 32 344 17 q 247 45 274 39 q 197 51 221 51 q 150 44 171 51 q 101 24 129 38 q 25 0 57 0 q -53 36 -25 0 q -81 122 -81 72 q -49 213 -81 175 q 40 251 -18 251 q 114 287 85 251 q 143 382 143 322 q 147 468 143 426 l 3 468 l 3 538 l 156 538 q 243 796 179 679 q 397 980 307 913 q 590 1047 488 1047 q 750 990 689 1047 q 811 839 811 932 q 779 726 811 772 q 699 658 747 681 q 604 636 651 636 z "},"¥":{"ha":639,"x_min":56,"x_max":825,"o":"m 663 1001 q 735 1036 692 1036 q 798 1013 771 1036 q 825 958 825 990 q 806 911 825 935 l 660 739 l 568 632 q 656 615 631 626 q 682 578 682 603 q 676 550 682 565 q 609 485 660 503 q 442 465 558 468 l 429 429 q 576 414 535 426 q 617 371 617 401 q 611 344 617 364 q 547 281 594 299 q 392 261 499 264 q 360 115 374 164 q 317 33 347 65 q 235 0 288 0 q 175 74 175 0 q 215 261 175 133 q 94 278 133 264 q 56 322 56 292 q 60 344 56 332 q 88 394 71 378 q 145 418 104 410 q 272 428 186 426 l 285 467 q 160 483 200 469 q 121 528 121 497 q 125 550 121 538 q 146 591 135 576 q 181 615 157 606 q 249 629 204 625 l 228 690 q 144 936 172 851 q 140 957 140 947 q 172 1013 140 990 q 243 1035 204 1035 q 292 1022 271 1035 q 321 985 313 1010 q 355 858 343 918 q 386 682 367 799 q 408 653 393 653 q 442 681 424 653 l 493 763 q 582 899 547 847 q 663 1001 617 950 z "},"+":{"ha":506,"x_min":56,"x_max":561,"o":"m 390 546 q 524 531 486 543 q 561 490 561 519 q 556 461 561 476 q 494 397 539 415 q 347 376 450 379 q 309 259 328 311 q 283 200 290 207 q 217 174 257 174 q 167 186 189 174 q 142 217 146 199 q 151 273 139 228 q 186 379 164 318 q 88 397 119 383 q 56 438 56 410 q 60 461 56 449 q 85 510 71 494 q 137 535 100 526 q 251 544 174 543 q 376 719 332 719 q 404 660 404 719 q 390 546 404 618 z "},"−":{"ha":506,"x_min":56,"x_max":561,"o":"m 294 363 q 111 375 167 363 q 56 424 56 388 q 60 447 56 435 q 92 502 72 486 q 167 525 113 518 q 347 532 222 532 q 515 520 468 532 q 561 476 561 508 q 556 447 561 463 q 515 394 543 411 q 437 369 488 376 q 294 363 386 363 z "},"×":{"ha":488,"x_min":56,"x_max":543,"o":"m 538 664 q 543 643 543 657 q 425 475 543 588 q 474 397 458 428 q 489 343 489 365 q 451 282 489 310 q 399 260 421 260 q 347 281 374 260 q 281 350 319 303 q 181 276 225 306 q 128 244 136 246 q 76 265 97 239 q 56 325 56 290 q 64 360 56 343 q 105 404 71 371 q 185 478 139 438 q 147 542 160 515 q 135 589 135 568 q 171 650 135 622 q 205 674 193 667 q 229 681 217 681 q 272 661 249 681 q 333 594 296 642 q 506 678 453 678 q 538 664 528 678 z "},"÷":{"ha":506,"x_min":56,"x_max":561,"o":"m 361 603 q 308 626 331 603 q 285 679 285 649 q 308 733 285 711 q 361 756 331 756 q 415 733 393 756 q 438 679 438 711 q 415 626 438 649 q 361 603 393 603 m 294 363 q 111 375 167 363 q 56 424 56 388 q 60 447 56 435 q 92 502 72 486 q 167 525 113 518 q 347 532 222 532 q 515 520 468 532 q 561 476 561 508 q 556 447 561 463 q 515 394 543 411 q 437 369 488 376 q 294 363 386 363 m 236 128 q 183 151 206 128 q 160 204 160 174 q 183 258 160 236 q 236 281 206 281 q 290 258 268 281 q 313 204 313 236 q 290 151 313 174 q 236 128 268 128 z "},"=":{"ha":613,"x_min":56,"x_max":668,"o":"m 401 503 q 218 515 274 503 q 163 564 163 528 q 167 588 163 575 q 199 642 179 626 q 274 665 219 658 q 454 672 329 672 q 622 660 575 672 q 668 617 668 649 q 663 588 668 603 q 622 534 650 551 q 544 510 594 517 q 401 503 493 503 m 294 226 q 111 239 167 226 q 56 288 56 251 q 60 311 56 299 q 92 366 72 350 q 167 389 113 382 q 347 396 222 396 q 515 384 468 396 q 561 340 561 372 q 556 311 561 326 q 515 258 543 275 q 437 233 488 240 q 294 226 386 226 z "},"≠":{"ha":613,"x_min":43,"x_max":668,"o":"m 575 668 q 647 651 625 663 q 668 617 668 639 q 663 588 668 603 q 602 524 646 542 q 458 503 558 506 l 382 396 q 522 381 482 393 q 561 340 561 369 q 556 311 561 326 q 515 258 543 275 q 437 233 488 240 q 294 226 386 226 l 260 226 q 138 73 183 122 q 72 25 93 24 l 68 25 q 43 54 43 25 q 153 232 43 88 q 80 251 104 238 q 56 289 56 264 q 60 311 56 299 q 88 363 71 346 q 149 387 106 379 q 285 396 192 394 l 375 503 q 213 517 263 504 q 163 564 163 529 q 167 588 163 575 q 199 642 179 626 q 274 665 219 658 q 454 672 329 672 q 521 671 501 672 l 624 788 l 653 776 l 575 668 z "},">":{"ha":633,"x_min":56,"x_max":689,"o":"m 97 192 q 70 201 78 192 q 57 229 63 210 q 56 240 56 233 q 130 328 56 286 q 358 435 204 371 l 433 467 q 219 567 288 528 q 151 643 151 606 q 160 668 151 656 q 188 697 175 688 q 219 706 200 706 q 371 656 251 706 q 590 550 490 607 q 689 461 689 493 q 562 356 689 418 q 281 243 435 294 q 97 192 128 192 z "},"<":{"ha":633,"x_min":56,"x_max":689,"o":"m 525 200 q 374 249 493 200 q 155 356 254 299 q 56 444 56 413 q 183 549 56 488 q 463 663 310 611 q 647 714 617 714 q 674 705 667 714 q 688 676 682 696 q 689 664 689 672 q 615 577 689 619 q 386 471 540 535 l 311 439 q 525 340 456 379 q 594 263 594 300 q 585 238 594 249 q 557 209 569 218 q 525 200 544 200 z "},"≥":{"ha":694,"x_min":43,"x_max":724,"o":"m 132 271 q 105 280 113 271 q 92 308 97 289 q 90 321 90 313 q 165 408 90 365 q 393 514 239 450 l 468 546 q 254 645 324 606 q 185 722 185 685 q 194 747 185 736 q 222 776 210 767 q 254 785 235 785 q 406 735 286 785 q 624 629 525 686 q 724 540 724 572 q 597 435 724 497 q 316 322 469 374 q 132 271 163 271 m 308 40 q 103 53 164 40 q 43 103 43 65 q 47 125 43 113 q 81 180 60 164 q 163 203 103 196 q 361 210 224 210 q 519 205 463 210 q 599 188 575 200 q 622 153 622 175 q 617 125 622 138 q 574 71 604 89 q 484 47 544 53 q 308 40 424 40 z "},"≤":{"ha":722,"x_min":43,"x_max":769,"o":"m 606 271 q 454 320 574 271 q 235 426 335 369 q 136 515 136 483 q 263 620 136 558 q 544 733 390 682 q 728 785 697 785 q 755 776 747 785 q 768 747 763 767 q 769 735 769 743 q 695 648 769 690 q 467 542 621 606 l 392 510 q 606 410 536 450 q 675 333 675 371 q 665 308 675 319 q 638 280 650 289 q 606 271 625 271 m 308 40 q 103 53 164 40 q 43 103 43 65 q 47 125 43 113 q 81 180 60 164 q 163 203 103 196 q 361 210 224 210 q 519 205 463 210 q 599 188 575 200 q 622 153 622 175 q 617 125 622 138 q 574 71 604 89 q 484 47 544 53 q 308 40 424 40 z "},"±":{"ha":610,"x_min":42,"x_max":651,"o":"m 475 626 q 613 615 574 624 q 651 585 651 607 q 646 565 651 575 q 588 520 631 532 q 446 506 546 508 q 422 433 433 464 q 403 396 410 403 q 336 369 376 369 q 284 383 307 369 q 261 418 261 397 q 282 506 261 447 q 157 517 196 508 q 118 549 118 526 q 122 565 118 557 q 149 601 133 589 q 206 619 165 613 q 333 626 247 625 q 446 753 397 753 q 481 688 481 753 q 475 626 481 656 m 347 322 q 526 313 478 322 q 575 278 575 304 q 569 256 575 267 q 528 214 557 228 q 447 194 500 200 q 294 189 393 189 q 99 199 157 189 q 42 238 42 208 q 46 256 42 246 q 80 299 60 286 q 158 317 100 311 q 347 322 217 322 z "},"≈":{"ha":583,"x_min":21,"x_max":699,"o":"m 488 464 q 424 474 451 464 q 354 504 397 483 q 306 527 326 519 q 267 535 286 535 q 225 525 240 535 q 193 497 210 515 q 176 483 185 489 q 160 476 168 476 q 132 514 132 476 q 156 597 132 549 q 223 681 181 646 q 314 715 265 715 q 383 703 347 715 q 476 667 418 692 q 531 644 504 654 q 572 635 557 635 q 601 644 590 635 q 626 671 613 653 q 651 697 640 689 q 676 704 661 704 q 699 672 699 704 q 672 586 699 636 q 596 500 644 536 q 488 464 547 464 m 376 174 q 313 183 340 174 q 243 214 286 193 q 195 237 215 229 q 156 244 175 244 q 114 235 129 244 q 82 207 99 225 q 65 192 74 199 q 49 186 57 186 q 21 224 21 186 q 45 307 21 258 q 112 390 69 356 q 203 425 154 425 q 272 413 236 425 q 365 376 307 401 q 419 354 393 364 q 461 344 446 344 q 490 353 479 344 q 515 381 501 363 q 540 406 531 399 q 565 414 550 414 q 588 382 588 414 q 560 296 588 346 q 485 210 533 246 q 376 174 436 174 z "},"~":{"ha":653,"x_min":108,"x_max":675,"o":"m 464 347 q 401 357 428 347 q 331 388 374 367 q 283 410 303 403 q 243 418 263 418 q 201 408 217 418 q 169 381 186 399 q 153 366 161 372 q 136 360 144 360 q 108 397 108 360 q 133 481 108 432 q 199 564 157 529 q 290 599 242 599 q 359 587 324 599 q 453 550 394 575 q 507 528 481 538 q 549 518 533 518 q 578 527 567 518 q 603 554 589 536 q 628 580 618 572 q 653 588 638 588 q 675 556 675 588 q 648 469 675 519 q 572 383 621 419 q 464 347 524 347 z "},"^":{"ha":833,"x_min":129,"x_max":603,"o":"m 561 460 q 539 456 551 456 q 472 513 500 456 q 406 688 443 571 l 386 746 q 257 528 304 596 q 174 460 210 460 q 158 464 167 460 q 135 483 142 474 q 131 510 129 492 q 197 658 135 539 q 327 875 260 776 q 424 974 394 974 q 513 880 472 974 q 578 669 553 786 q 603 508 603 553 q 592 476 603 486 q 561 460 582 467 z "},"%":{"ha":917,"x_min":46,"x_max":922,"o":"m 264 507 q 170 555 201 507 q 139 681 139 603 q 171 842 139 758 q 260 981 203 925 q 390 1036 318 1036 q 480 990 450 1036 q 510 868 510 943 q 477 706 510 792 q 388 564 444 621 q 264 507 331 507 m 75 0 q 46 29 46 0 q 899 1015 46 135 l 922 997 q 781 817 846 901 q 657 660 715 733 q 353 274 457 403 q 178 73 250 146 q 75 0 107 0 m 306 674 q 383 714 350 674 q 417 810 417 754 q 399 870 417 849 q 349 892 381 892 q 267 849 300 892 q 235 753 235 806 q 255 696 235 718 q 306 674 275 674 m 604 -1 q 510 47 542 -1 q 479 172 479 94 q 511 333 479 250 q 601 472 543 417 q 731 528 658 528 q 820 481 790 528 q 850 360 850 435 q 817 198 850 283 q 728 56 785 113 q 604 -1 671 -1 m 646 165 q 724 205 690 165 q 757 299 757 244 q 739 362 757 340 q 689 383 721 383 q 608 341 640 383 q 575 249 575 299 q 594 188 575 211 q 646 165 614 165 z "},"‰":{"ha":1289,"x_min":46,"x_max":1239,"o":"m 264 507 q 170 555 201 507 q 139 681 139 603 q 171 842 139 758 q 260 981 203 925 q 390 1036 318 1036 q 480 990 450 1036 q 510 868 510 943 q 477 706 510 792 q 388 564 444 621 q 264 507 331 507 m 75 0 q 46 29 46 0 q 899 1015 46 135 l 922 997 q 781 817 846 901 q 657 660 715 733 q 353 274 457 403 q 178 73 250 146 q 75 0 107 0 m 306 674 q 383 714 350 674 q 417 810 417 754 q 399 870 417 849 q 349 892 381 892 q 267 849 300 892 q 235 753 235 806 q 255 696 235 718 q 306 674 275 674 m 604 -1 q 510 47 542 -1 q 479 172 479 94 q 511 333 479 250 q 601 472 543 417 q 731 528 658 528 q 820 481 790 528 q 850 360 850 435 q 817 198 850 283 q 728 56 785 113 q 604 -1 671 -1 m 993 -1 q 899 47 931 -1 q 868 172 868 94 q 900 333 868 250 q 990 472 932 417 q 1119 528 1047 528 q 1209 481 1179 528 q 1239 360 1239 435 q 1206 198 1239 283 q 1117 56 1174 113 q 993 -1 1060 -1 m 646 165 q 724 205 690 165 q 757 299 757 244 q 739 362 757 340 q 689 383 721 383 q 608 341 640 383 q 575 249 575 299 q 594 188 575 211 q 646 165 614 165 m 1035 165 q 1113 205 1079 165 q 1146 299 1146 244 q 1128 362 1146 340 q 1078 383 1110 383 q 997 341 1029 383 q 964 249 964 299 q 983 188 964 211 q 1035 165 1003 165 z "},"@":{"ha":889,"x_min":28,"x_max":919,"o":"m 439 0 q 229 58 324 0 q 81 214 135 115 q 28 432 28 313 q 31 490 28 471 q 119 732 46 621 q 304 908 193 843 q 539 972 415 972 q 724 928 636 972 q 865 803 811 885 q 919 615 919 722 q 875 431 919 518 q 756 293 831 344 q 596 242 682 242 q 527 273 551 242 q 503 357 503 304 q 506 393 503 368 l 501 393 q 422 283 468 325 q 324 242 376 242 q 244 284 272 242 q 217 399 217 326 q 248 561 217 476 q 340 703 279 646 q 485 761 401 761 q 537 754 519 761 q 568 735 554 747 q 592 722 582 722 q 610 727 601 722 q 628 739 619 732 q 682 761 653 761 q 718 724 718 761 q 710 680 718 701 q 683 622 701 658 l 668 590 q 647 513 647 544 q 665 463 647 481 q 714 446 682 446 q 809 495 769 446 q 849 618 849 544 q 801 756 849 697 q 675 844 753 814 q 511 875 597 875 q 310 815 406 875 q 156 656 214 756 q 97 440 97 556 q 145 266 97 344 q 277 142 193 188 q 467 97 361 97 q 627 133 550 97 q 763 229 704 168 q 793 244 778 244 q 815 234 806 244 q 824 210 824 224 q 811 178 824 194 q 642 47 739 94 q 439 0 544 0 m 428 457 q 492 488 467 457 q 518 554 518 519 q 503 595 518 581 q 464 610 489 610 q 400 579 425 610 q 375 513 375 549 q 390 472 375 486 q 428 457 404 457 z "},"&":{"ha":972,"x_min":15,"x_max":983,"o":"m 882 322 q 923 305 901 322 q 959 258 944 288 q 974 196 974 229 q 927 58 974 117 q 778 0 881 0 q 556 93 660 0 q 445 12 507 42 q 313 -18 383 -18 q 163 22 231 -18 q 55 133 94 63 q 15 294 15 204 q 49 456 15 378 q 148 591 82 533 q 308 671 214 649 l 308 701 q 368 954 308 861 q 547 1047 428 1047 q 672 1001 628 1047 q 717 886 717 956 q 682 774 717 829 q 574 676 647 719 q 392 614 501 632 q 438 451 404 529 q 521 315 471 372 q 603 377 563 336 q 664 460 644 418 q 610 474 632 474 q 578 466 589 474 q 556 443 568 458 q 542 428 549 433 q 529 424 536 424 q 512 434 518 424 q 506 463 506 444 q 524 535 506 494 q 575 603 542 575 q 651 631 608 631 q 709 620 679 631 q 788 589 739 610 q 836 569 813 578 q 875 560 860 560 q 898 565 888 560 q 921 581 908 571 q 958 599 944 599 q 977 590 971 599 q 983 565 983 581 q 963 499 983 536 q 906 435 943 461 q 819 408 868 408 q 739 426 785 408 q 698 318 724 374 q 646 226 672 263 q 733 211 689 211 q 801 223 776 211 q 835 250 825 235 q 854 289 844 265 q 865 314 860 306 q 882 322 871 322 m 469 867 q 412 828 438 867 q 386 701 386 790 l 386 690 q 480 750 449 714 q 511 819 511 786 q 500 853 511 840 q 469 867 489 867 m 213 432 q 253 312 213 360 q 361 264 293 264 q 417 272 388 264 q 314 599 335 424 q 238 532 264 576 q 213 432 213 488 z "},"¶":{"ha":625,"x_min":61,"x_max":799,"o":"m 767 1047 q 790 1037 782 1047 q 799 1011 799 1026 q 786 974 799 990 q 753 958 774 958 l 693 958 l 363 -97 q 294 -156 344 -156 q 265 -124 265 -156 q 271 -93 265 -115 l 600 958 l 499 958 l 168 -97 q 100 -156 150 -156 q 78 -147 86 -156 q 69 -124 69 -139 q 72 -108 69 -117 q 76 -93 75 -99 l 239 425 q 106 478 150 425 q 61 618 61 532 q 110 813 61 713 q 244 981 158 914 q 435 1047 331 1047 l 767 1047 z "},"§":{"ha":722,"x_min":-85,"x_max":801,"o":"m 694 651 q 683 649 689 649 q 644 665 663 649 q 636 697 626 682 q 650 750 650 715 q 634 802 650 781 q 585 824 618 824 q 528 801 550 824 q 508 731 506 778 q 528 667 510 699 q 590 582 547 636 q 671 467 643 517 q 699 358 699 417 q 674 263 699 307 q 608 193 649 219 q 519 163 567 167 q 564 13 564 93 q 524 -133 564 -67 q 412 -239 483 -200 q 249 -278 340 -278 q 88 -242 160 -278 q -31 -135 15 -206 q -83 36 -76 -64 q -85 67 -85 47 q -53 209 -85 153 q 23 290 -22 265 q 110 315 68 315 q 151 306 136 315 q 167 279 167 296 q 153 253 167 267 q 135 226 142 240 q 128 188 128 211 q 160 93 128 128 q 247 58 192 58 q 308 81 285 58 q 332 139 332 103 q 313 202 332 171 q 256 282 294 233 q 175 402 203 351 q 147 517 147 453 q 188 631 147 586 q 297 675 228 675 q 368 664 328 675 q 331 813 331 739 q 391 970 331 907 q 571 1033 451 1033 q 744 974 686 1033 q 801 829 801 914 q 772 726 801 774 q 694 651 743 678 m 325 443 q 342 385 325 415 q 392 319 360 356 q 463 348 436 321 q 490 418 490 375 q 475 484 490 450 q 429 563 460 518 q 354 528 383 558 q 325 443 325 497 z "},"©":{"ha":910,"x_min":46,"x_max":925,"o":"m 435 0 q 236 57 325 0 q 97 213 147 114 q 46 431 46 311 q 49 486 46 447 q 133 730 63 618 q 311 907 204 842 q 538 972 418 972 q 736 915 647 972 q 875 760 825 858 q 925 543 925 663 q 922 486 925 525 q 838 242 908 354 q 660 65 768 131 q 435 0 553 0 m 440 47 q 641 106 546 47 q 799 266 736 165 q 875 486 863 367 q 878 538 878 519 q 833 734 878 646 q 708 874 788 822 q 532 925 629 925 q 331 866 426 925 q 172 706 235 807 q 96 486 108 606 q 93 435 93 453 q 138 238 93 326 q 263 99 183 150 q 440 47 342 47 m 432 181 q 274 251 328 181 q 219 425 219 321 q 259 605 219 515 q 372 752 299 694 q 540 810 446 810 q 670 765 626 810 q 714 656 714 721 q 672 542 714 579 q 581 504 631 504 q 536 515 553 504 q 519 539 519 525 q 528 558 519 547 q 543 581 538 569 q 549 611 549 592 q 537 643 549 631 q 500 656 525 656 q 433 619 458 656 q 407 533 407 583 q 448 435 407 469 q 553 401 489 401 q 621 411 588 401 q 633 413 625 413 q 663 399 651 413 q 675 363 675 385 q 661 317 675 339 q 559 211 617 242 q 432 181 501 181 z "},"®":{"ha":436,"x_min":35,"x_max":504,"o":"m 242 451 q 136 482 183 451 q 62 565 89 513 q 35 682 35 618 q 72 825 35 758 q 169 932 108 892 q 297 972 229 972 q 403 942 356 972 q 477 859 450 911 q 504 743 504 807 q 467 599 504 667 q 370 492 431 532 q 242 451 310 451 m 247 493 q 354 527 304 493 q 435 618 404 561 q 465 740 465 675 q 416 877 465 822 q 293 932 367 932 q 185 898 236 932 q 104 807 135 864 q 74 685 74 750 q 123 548 74 603 q 247 493 172 493 m 161 553 q 128 588 128 553 q 147 672 128 614 q 169 746 165 731 l 204 857 q 251 896 217 892 q 281 897 261 897 q 371 872 342 897 q 400 801 400 846 q 381 737 400 764 q 326 700 361 710 q 315 697 318 699 q 311 692 311 694 q 317 685 311 689 q 329 671 324 682 q 342 654 335 660 q 361 649 349 649 q 376 642 371 649 q 381 624 381 635 q 361 577 381 600 q 310 554 342 554 q 276 569 290 554 q 261 613 263 583 q 259 638 260 619 q 253 669 258 657 q 239 682 249 681 l 221 618 q 161 553 203 553 m 267 725 q 304 742 288 725 q 321 783 321 760 q 312 819 321 807 q 278 829 303 832 q 260 770 268 799 q 250 731 253 742 q 267 725 254 725 z "},"™":{"ha":986,"x_min":56,"x_max":1042,"o":"m 140 585 q 81 650 81 585 l 82 672 q 140 822 83 688 l 176 908 l 78 908 q 62 927 68 908 q 56 971 56 946 q 65 1024 56 1001 q 93 1047 75 1047 l 461 1047 q 473 1031 468 1047 q 478 994 478 1015 q 463 934 478 960 q 419 908 449 908 l 322 908 l 303 861 q 233 689 239 701 q 217 647 228 676 q 189 601 207 617 q 140 585 171 585 m 451 585 q 399 639 399 585 q 401 672 399 656 q 448 797 404 686 q 503 935 492 908 l 532 1006 q 556 1035 539 1024 q 593 1047 574 1047 l 678 1047 q 716 1025 706 1047 q 726 965 726 1003 l 725 921 q 724 890 724 910 q 732 865 724 865 q 751 880 742 865 q 778 926 761 894 q 835 1015 808 983 q 900 1047 861 1047 l 976 1047 q 1029 1019 1010 1047 q 1042 982 1042 1003 q 1038 961 1042 972 q 942 689 961 731 q 901 613 921 642 q 850 585 881 585 q 796 640 796 585 q 800 672 796 651 q 825 749 804 694 q 844 807 844 790 q 833 819 844 819 q 803 797 821 819 q 761 733 786 775 q 695 641 719 671 q 647 611 671 611 q 608 669 608 611 q 617 744 608 694 q 624 799 624 779 q 613 819 624 819 q 590 805 599 819 q 567 749 581 790 q 544 689 557 718 q 451 585 503 585 z "},"°":{"ha":514,"x_min":131,"x_max":564,"o":"m 347 614 q 239 643 289 614 q 160 722 189 672 q 131 831 131 772 q 160 939 131 889 q 239 1018 189 989 q 347 1047 289 1047 q 456 1018 406 1047 q 535 939 506 989 q 564 831 564 889 q 535 722 564 772 q 456 643 506 672 q 347 614 406 614 m 347 704 q 438 742 400 704 q 475 831 475 779 q 438 919 475 882 q 347 957 400 957 q 257 919 294 957 q 219 831 219 882 q 257 742 219 779 q 347 704 294 704 z "},"|":{"ha":360,"x_min":28,"x_max":471,"o":"m 58 -156 q 36 -147 44 -156 q 28 -124 28 -139 q 35 -93 28 -111 l 376 997 q 400 1035 383 1022 q 435 1047 417 1047 q 460 1038 450 1047 q 471 1011 471 1028 q 469 997 471 1003 l 126 -97 q 58 -156 107 -156 z "},"¦":{"ha":347,"x_min":28,"x_max":471,"o":"m 376 997 q 400 1035 383 1022 q 435 1047 417 1047 q 460 1038 450 1047 q 471 1011 471 1028 q 469 997 471 1003 l 340 586 l 247 586 l 376 997 m 58 -156 q 36 -147 44 -156 q 28 -124 28 -139 q 35 -93 28 -111 l 171 343 l 264 343 l 126 -97 q 58 -156 107 -156 z "},"†":{"ha":667,"x_min":54,"x_max":728,"o":"m 696 694 q 719 683 711 694 q 728 654 728 672 q 706 586 728 621 q 656 551 685 551 q 524 555 576 551 q 418 572 471 558 l 169 -219 q 101 -278 151 -278 q 72 -246 72 -278 q 78 -215 72 -237 l 329 585 q 217 557 274 563 q 76 551 161 551 q 60 564 65 551 q 54 596 54 576 q 68 663 54 631 q 101 694 82 694 q 242 690 186 694 q 356 668 299 686 l 435 918 q 460 956 443 943 q 494 968 476 968 q 520 959 510 968 q 531 933 531 950 q 528 918 531 929 l 450 669 q 559 690 504 686 q 696 694 614 694 z "},"‡":{"ha":792,"x_min":-1,"x_max":825,"o":"m 793 694 q 817 683 808 694 q 825 654 825 672 q 803 586 825 621 q 753 551 782 551 q 621 555 674 551 q 517 572 568 558 l 372 110 q 491 138 432 132 q 640 143 550 143 q 664 132 656 143 q 672 103 672 121 q 651 35 672 69 q 600 0 629 0 q 458 4 515 0 q 344 25 401 8 l 268 -219 q 200 -278 250 -278 q 171 -246 171 -278 q 176 -215 171 -237 l 251 25 q 149 4 200 8 q 21 0 97 0 q 4 13 10 0 q -1 44 -1 25 q 13 111 -1 79 q 46 143 26 143 q 177 140 125 143 q 282 122 229 136 l 428 585 q 315 557 371 563 q 174 551 258 551 q 157 564 163 551 q 151 596 151 576 q 165 663 151 631 q 199 694 179 694 q 340 690 283 694 q 454 668 397 686 l 532 918 q 557 956 540 943 q 592 968 574 968 q 617 959 607 968 q 628 933 628 950 q 625 918 628 929 l 547 669 q 656 690 601 686 q 793 694 711 694 z "},"¨":{"ha":626,"x_min":111,"x_max":613,"o":"m 214 782 q 140 801 168 782 q 111 865 111 821 q 228 972 111 972 q 329 892 329 972 q 214 782 329 782 m 496 782 q 422 801 450 782 q 394 864 394 821 q 511 972 394 972 q 613 889 613 972 q 581 807 613 832 q 496 782 549 782 z "},"˙":{"ha":343,"x_min":111,"x_max":329,"o":"m 214 782 q 140 801 168 782 q 111 865 111 821 q 228 972 111 972 q 329 892 329 972 q 214 782 329 782 z "},"`":{"ha":444,"x_min":110,"x_max":431,"o":"m 397 786 q 306 810 379 786 q 171 863 232 835 q 111 903 110 890 q 131 940 114 917 q 169 981 147 964 q 208 999 192 999 q 284 961 231 999 q 384 879 338 924 q 431 821 431 835 q 422 798 431 810 q 397 786 413 786 z "},"´":{"ha":443,"x_min":111,"x_max":431,"o":"m 143 778 q 119 790 128 778 q 111 814 111 801 q 158 872 111 828 q 257 954 204 917 q 332 992 310 992 q 371 974 349 992 q 410 932 393 956 q 429 894 428 908 q 369 854 431 882 q 234 802 307 826 q 143 778 161 778 z "},"˝":{"ha":631,"x_min":111,"x_max":618,"o":"m 143 764 q 119 776 128 764 q 111 800 111 788 q 147 858 111 814 q 224 940 182 903 q 288 978 267 978 q 341 947 311 978 q 371 896 371 917 q 322 849 371 881 q 216 791 274 818 q 143 764 158 764 m 389 764 q 365 776 374 764 q 357 800 357 788 q 392 858 357 814 q 469 940 428 903 q 533 978 511 978 q 585 949 556 978 q 617 897 614 919 q 569 851 618 882 q 462 792 521 819 q 389 764 403 764 z "},"ˆ":{"ha":492,"x_min":110,"x_max":478,"o":"m 144 811 q 119 826 128 811 q 111 853 110 840 q 152 897 111 867 q 242 951 193 926 q 317 976 292 976 q 376 951 338 976 q 446 896 414 926 q 478 853 478 865 q 470 825 478 839 q 450 811 463 811 q 379 832 436 811 q 296 869 322 853 q 248 848 286 865 q 183 821 210 831 q 144 811 156 811 z "},"ˇ":{"ha":492,"x_min":111,"x_max":478,"o":"m 272 811 q 213 836 251 811 q 143 892 175 861 q 111 935 111 922 q 119 963 111 949 q 139 976 126 976 q 210 956 153 976 q 293 918 267 935 q 341 940 303 922 q 406 967 379 957 q 444 976 433 976 q 469 963 460 976 q 478 935 478 949 q 437 891 478 921 q 347 836 396 861 q 272 811 297 811 z "},"˘":{"ha":504,"x_min":111,"x_max":490,"o":"m 278 804 q 183 823 221 804 q 128 869 146 842 q 111 925 111 897 q 122 962 111 947 q 150 976 132 976 q 172 970 165 976 q 189 949 179 964 q 218 916 200 928 q 275 904 236 904 q 363 916 339 904 q 404 950 388 928 q 425 970 415 964 q 456 976 435 976 q 481 965 472 976 q 490 936 490 954 q 467 878 490 908 q 397 826 444 847 q 278 804 349 804 z "},"˚":{"ha":424,"x_min":111,"x_max":410,"o":"m 257 789 q 111 890 111 789 q 257 990 111 990 q 376 961 343 990 q 410 890 410 932 q 257 789 410 789 m 257 850 q 324 858 294 850 q 354 890 354 867 q 324 921 354 913 q 257 929 294 929 q 165 890 165 929 q 257 850 165 850 z "},"˜":{"ha":517,"x_min":111,"x_max":503,"o":"m 358 810 q 311 817 332 810 q 265 839 290 825 q 206 860 226 860 q 176 853 188 860 q 153 832 165 846 q 131 818 140 818 q 111 844 111 818 q 128 903 111 869 q 174 960 144 936 q 238 983 203 983 q 287 974 261 983 q 349 950 313 965 q 378 938 354 947 q 417 928 403 928 q 437 934 429 928 q 454 953 444 940 q 488 976 469 976 q 503 954 503 976 q 484 894 503 929 q 433 835 465 860 q 358 810 400 810 z "},"¯":{"ha":631,"x_min":111,"x_max":617,"o":"m 350 846 q 167 855 222 846 q 111 893 111 864 q 115 910 111 901 q 148 950 128 938 q 223 967 168 963 q 403 972 278 972 q 571 964 525 972 q 617 931 617 956 q 611 910 617 926 q 572 869 600 883 q 493 851 544 856 q 350 846 442 846 z "},"¸":{"ha":463,"x_min":111,"x_max":449,"o":"m 239 -319 q 141 -283 171 -319 q 111 -196 111 -246 q 119 -150 111 -167 q 146 -131 128 -131 q 157 -139 157 -131 q 178 -174 157 -161 q 226 -187 199 -187 q 278 -173 256 -187 q 300 -133 300 -158 q 292 -111 300 -119 q 269 -103 285 -103 q 215 -121 239 -103 q 200 -126 208 -126 q 184 -119 190 -126 q 178 -101 178 -112 q 192 -69 178 -85 l 333 97 l 394 90 l 290 -35 l 293 -42 q 350 -32 318 -32 q 420 -55 392 -32 q 449 -125 449 -78 q 424 -219 449 -174 q 351 -292 399 -264 q 239 -319 303 -319 z "},"˛":{"ha":390,"x_min":111,"x_max":376,"o":"m 306 -262 q 274 -264 294 -264 q 151 -220 190 -264 q 111 -115 111 -176 q 149 -6 111 -58 q 257 68 188 46 l 278 35 q 235 -35 235 3 q 260 -88 235 -68 q 344 -103 285 -108 q 368 -116 360 -101 q 376 -154 376 -131 q 358 -226 376 -193 q 306 -262 339 -258 z "}}}
